<svg width="2000" height="1300" viewBox="0 0 2000 1300" fill="none" xmlns="http://www.w3.org/2000/svg">
<rect width="2000" height="1300" fill="white"/>
<rect x="489" y="138" width="50" height="100" fill="#00BE57"/>
<path d="M416.114 271V253.545H422.011C423.375 253.545 424.494 253.778 425.369 254.244C426.244 254.705 426.892 255.338 427.312 256.145C427.733 256.952 427.943 257.869 427.943 258.898C427.943 259.926 427.733 260.838 427.312 261.634C426.892 262.429 426.247 263.054 425.378 263.509C424.509 263.957 423.398 264.182 422.045 264.182H417.273V262.273H421.977C422.909 262.273 423.659 262.136 424.227 261.864C424.801 261.591 425.216 261.205 425.472 260.705C425.733 260.199 425.864 259.597 425.864 258.898C425.864 258.199 425.733 257.588 425.472 257.065C425.21 256.543 424.793 256.139 424.219 255.855C423.645 255.565 422.886 255.42 421.943 255.42H418.227V271H416.114ZM424.33 263.159L428.625 271H426.17L421.943 263.159H424.33ZM435.045 271.307C434.215 271.307 433.462 271.151 432.786 270.838C432.11 270.52 431.573 270.062 431.175 269.466C430.778 268.864 430.579 268.136 430.579 267.284C430.579 266.534 430.727 265.926 431.022 265.46C431.317 264.989 431.712 264.619 432.207 264.352C432.701 264.085 433.246 263.886 433.843 263.756C434.445 263.619 435.05 263.511 435.658 263.432C436.454 263.33 437.099 263.253 437.593 263.202C438.093 263.145 438.457 263.051 438.684 262.92C438.917 262.79 439.033 262.562 439.033 262.239V262.17C439.033 261.33 438.803 260.676 438.343 260.21C437.888 259.744 437.198 259.511 436.272 259.511C435.312 259.511 434.559 259.722 434.013 260.142C433.468 260.562 433.085 261.011 432.863 261.489L430.954 260.807C431.295 260.011 431.749 259.392 432.317 258.949C432.891 258.5 433.516 258.187 434.192 258.011C434.874 257.83 435.545 257.739 436.204 257.739C436.624 257.739 437.107 257.79 437.653 257.892C438.204 257.989 438.735 258.19 439.246 258.497C439.763 258.804 440.192 259.267 440.533 259.886C440.874 260.506 441.045 261.335 441.045 262.375V271H439.033V269.227H438.931C438.795 269.511 438.567 269.815 438.249 270.139C437.931 270.463 437.508 270.739 436.979 270.966C436.451 271.193 435.806 271.307 435.045 271.307ZM435.352 269.5C436.147 269.5 436.817 269.344 437.363 269.031C437.914 268.719 438.329 268.315 438.607 267.821C438.891 267.327 439.033 266.807 439.033 266.261V264.42C438.948 264.523 438.761 264.616 438.471 264.702C438.187 264.781 437.857 264.852 437.482 264.915C437.113 264.972 436.752 265.023 436.4 265.068C436.053 265.108 435.772 265.142 435.556 265.17C435.033 265.239 434.545 265.349 434.09 265.503C433.641 265.651 433.278 265.875 432.999 266.176C432.727 266.472 432.59 266.875 432.59 267.386C432.59 268.085 432.849 268.614 433.366 268.972C433.888 269.324 434.55 269.5 435.352 269.5ZM453.989 260.841L452.182 261.352C452.068 261.051 451.901 260.759 451.679 260.474C451.463 260.185 451.168 259.946 450.793 259.759C450.418 259.571 449.938 259.477 449.352 259.477C448.551 259.477 447.884 259.662 447.349 260.031C446.821 260.395 446.557 260.858 446.557 261.42C446.557 261.92 446.739 262.315 447.102 262.605C447.466 262.895 448.034 263.136 448.807 263.33L450.75 263.807C451.92 264.091 452.793 264.526 453.366 265.111C453.94 265.69 454.227 266.437 454.227 267.352C454.227 268.102 454.011 268.773 453.58 269.364C453.153 269.955 452.557 270.42 451.79 270.761C451.023 271.102 450.131 271.273 449.114 271.273C447.778 271.273 446.673 270.983 445.798 270.403C444.923 269.824 444.369 268.977 444.136 267.864L446.045 267.386C446.227 268.091 446.571 268.619 447.077 268.972C447.588 269.324 448.256 269.5 449.08 269.5C450.017 269.5 450.761 269.301 451.312 268.903C451.869 268.5 452.148 268.017 452.148 267.455C452.148 267 451.989 266.619 451.67 266.312C451.352 266 450.864 265.767 450.205 265.614L448.023 265.102C446.824 264.818 445.943 264.378 445.381 263.781C444.824 263.179 444.545 262.426 444.545 261.523C444.545 260.784 444.753 260.131 445.168 259.562C445.588 258.994 446.159 258.548 446.881 258.224C447.608 257.901 448.432 257.739 449.352 257.739C450.648 257.739 451.665 258.023 452.403 258.591C453.148 259.159 453.676 259.909 453.989 260.841ZM457.255 275.909V257.909H459.198V259.989H459.437C459.585 259.761 459.789 259.472 460.05 259.119C460.317 258.761 460.698 258.443 461.192 258.165C461.692 257.881 462.369 257.739 463.221 257.739C464.323 257.739 465.295 258.014 466.136 258.565C466.977 259.116 467.633 259.898 468.104 260.909C468.576 261.92 468.812 263.114 468.812 264.489C468.812 265.875 468.576 267.077 468.104 268.094C467.633 269.105 466.979 269.889 466.144 270.446C465.309 270.997 464.346 271.273 463.255 271.273C462.414 271.273 461.741 271.134 461.235 270.855C460.729 270.571 460.34 270.25 460.067 269.892C459.795 269.528 459.585 269.227 459.437 268.989H459.266V275.909H457.255ZM459.232 264.455C459.232 265.443 459.377 266.315 459.667 267.071C459.957 267.821 460.38 268.409 460.937 268.835C461.494 269.256 462.175 269.466 462.982 269.466C463.823 269.466 464.525 269.244 465.087 268.801C465.656 268.352 466.082 267.75 466.366 266.994C466.656 266.233 466.8 265.386 466.8 264.455C466.8 263.534 466.658 262.705 466.374 261.966C466.096 261.222 465.673 260.634 465.104 260.202C464.542 259.764 463.835 259.545 462.982 259.545C462.164 259.545 461.477 259.753 460.92 260.168C460.363 260.577 459.942 261.151 459.658 261.889C459.374 262.622 459.232 263.477 459.232 264.455ZM472.153 271V253.545H474.164V259.989H474.335C474.482 259.761 474.687 259.472 474.948 259.119C475.215 258.761 475.596 258.443 476.09 258.165C476.59 257.881 477.266 257.739 478.119 257.739C479.221 257.739 480.192 258.014 481.033 258.565C481.874 259.116 482.531 259.898 483.002 260.909C483.474 261.92 483.71 263.114 483.71 264.489C483.71 265.875 483.474 267.077 483.002 268.094C482.531 269.105 481.877 269.889 481.042 270.446C480.207 270.997 479.244 271.273 478.153 271.273C477.312 271.273 476.638 271.134 476.133 270.855C475.627 270.571 475.238 270.25 474.965 269.892C474.692 269.528 474.482 269.227 474.335 268.989H474.096V271H472.153ZM474.13 264.455C474.13 265.443 474.275 266.315 474.565 267.071C474.854 267.821 475.278 268.409 475.835 268.835C476.391 269.256 477.073 269.466 477.88 269.466C478.721 269.466 479.423 269.244 479.985 268.801C480.553 268.352 480.979 267.75 481.263 266.994C481.553 266.233 481.698 265.386 481.698 264.455C481.698 263.534 481.556 262.705 481.272 261.966C480.994 261.222 480.57 260.634 480.002 260.202C479.44 259.764 478.732 259.545 477.88 259.545C477.062 259.545 476.374 259.753 475.817 260.168C475.261 260.577 474.84 261.151 474.556 261.889C474.272 262.622 474.13 263.477 474.13 264.455ZM492.275 271.273C491.013 271.273 489.925 270.994 489.011 270.438C488.102 269.875 487.4 269.091 486.906 268.085C486.417 267.074 486.173 265.898 486.173 264.557C486.173 263.216 486.417 262.034 486.906 261.011C487.4 259.983 488.087 259.182 488.968 258.608C489.854 258.028 490.888 257.739 492.07 257.739C492.752 257.739 493.425 257.852 494.09 258.08C494.755 258.307 495.36 258.676 495.906 259.188C496.451 259.693 496.886 260.364 497.21 261.199C497.533 262.034 497.695 263.062 497.695 264.284V265.136H487.604V263.398H495.65C495.65 262.659 495.502 262 495.207 261.42C494.917 260.841 494.502 260.384 493.962 260.048C493.428 259.713 492.798 259.545 492.07 259.545C491.269 259.545 490.576 259.744 489.991 260.142C489.411 260.534 488.965 261.045 488.653 261.676C488.34 262.307 488.184 262.983 488.184 263.705V264.864C488.184 265.852 488.354 266.69 488.695 267.378C489.042 268.06 489.522 268.58 490.136 268.938C490.749 269.29 491.462 269.466 492.275 269.466C492.803 269.466 493.281 269.392 493.707 269.244C494.138 269.091 494.511 268.864 494.823 268.562C495.136 268.256 495.377 267.875 495.548 267.42L497.491 267.966C497.286 268.625 496.942 269.205 496.46 269.705C495.977 270.199 495.38 270.585 494.67 270.864C493.96 271.136 493.161 271.273 492.275 271.273ZM500.755 271V257.909H502.698V259.886H502.835C503.073 259.239 503.505 258.713 504.13 258.31C504.755 257.906 505.46 257.705 506.244 257.705C506.391 257.705 506.576 257.707 506.798 257.713C507.019 257.719 507.187 257.727 507.3 257.739V259.784C507.232 259.767 507.076 259.741 506.832 259.707C506.593 259.668 506.34 259.648 506.073 259.648C505.437 259.648 504.869 259.781 504.369 260.048C503.874 260.31 503.482 260.673 503.192 261.139C502.908 261.599 502.766 262.125 502.766 262.716V271H500.755ZM509.685 271V257.909H511.628V259.886H511.764C512.003 259.239 512.435 258.713 513.06 258.31C513.685 257.906 514.389 257.705 515.173 257.705C515.321 257.705 515.506 257.707 515.727 257.713C515.949 257.719 516.116 257.727 516.23 257.739V259.784C516.162 259.767 516.006 259.741 515.761 259.707C515.523 259.668 515.27 259.648 515.003 259.648C514.366 259.648 513.798 259.781 513.298 260.048C512.804 260.31 512.412 260.673 512.122 261.139C511.838 261.599 511.696 262.125 511.696 262.716V271H509.685ZM520.308 275.909C519.967 275.909 519.663 275.881 519.396 275.824C519.129 275.773 518.945 275.722 518.842 275.67L519.354 273.898C519.842 274.023 520.274 274.068 520.649 274.034C521.024 274 521.357 273.832 521.646 273.531C521.942 273.236 522.212 272.756 522.456 272.091L522.831 271.068L517.99 257.909H520.172L523.786 268.341H523.922L527.536 257.909H529.717L524.161 272.909C523.911 273.585 523.601 274.145 523.232 274.588C522.862 275.037 522.433 275.369 521.945 275.585C521.462 275.801 520.916 275.909 520.308 275.909ZM539.395 271V253.545H545.293C546.662 253.545 547.781 253.793 548.651 254.287C549.526 254.776 550.173 255.438 550.594 256.273C551.014 257.108 551.224 258.04 551.224 259.068C551.224 260.097 551.014 261.031 550.594 261.872C550.179 262.713 549.537 263.384 548.668 263.884C547.798 264.378 546.685 264.625 545.327 264.625H541.099V262.75H545.259C546.196 262.75 546.949 262.588 547.517 262.264C548.085 261.94 548.497 261.503 548.753 260.952C549.014 260.395 549.145 259.767 549.145 259.068C549.145 258.369 549.014 257.744 548.753 257.193C548.497 256.642 548.082 256.21 547.509 255.898C546.935 255.58 546.173 255.42 545.224 255.42H541.509V271H539.395ZM554.357 271V257.909H556.368V271H554.357ZM555.379 255.727C554.987 255.727 554.649 255.594 554.365 255.327C554.087 255.06 553.947 254.739 553.947 254.364C553.947 253.989 554.087 253.668 554.365 253.401C554.649 253.134 554.987 253 555.379 253C555.771 253 556.107 253.134 556.385 253.401C556.669 253.668 556.811 253.989 556.811 254.364C556.811 254.739 556.669 255.06 556.385 255.327C556.107 255.594 555.771 255.727 555.379 255.727ZM567.075 271V253.545H572.972C574.342 253.545 575.461 253.793 576.33 254.287C577.205 254.776 577.853 255.438 578.273 256.273C578.694 257.108 578.904 258.04 578.904 259.068C578.904 260.097 578.694 261.031 578.273 261.872C577.859 262.713 577.217 263.384 576.347 263.884C575.478 264.378 574.364 264.625 573.006 264.625H568.779V262.75H572.938C573.876 262.75 574.629 262.588 575.197 262.264C575.765 261.94 576.177 261.503 576.433 260.952C576.694 260.395 576.825 259.767 576.825 259.068C576.825 258.369 576.694 257.744 576.433 257.193C576.177 256.642 575.762 256.21 575.188 255.898C574.614 255.58 573.853 255.42 572.904 255.42H569.188V271H567.075ZM582.036 271V257.909H584.048V271H582.036ZM583.059 255.727C582.667 255.727 582.329 255.594 582.045 255.327C581.766 255.06 581.627 254.739 581.627 254.364C581.627 253.989 581.766 253.668 582.045 253.401C582.329 253.134 582.667 253 583.059 253C583.451 253 583.786 253.134 584.065 253.401C584.349 253.668 584.491 253.989 584.491 254.364C584.491 254.739 584.349 255.06 584.065 255.327C583.786 255.594 583.451 255.727 583.059 255.727ZM593.05 271.273C591.822 271.273 590.766 270.983 589.879 270.403C588.993 269.824 588.311 269.026 587.834 268.009C587.357 266.991 587.118 265.83 587.118 264.523C587.118 263.193 587.362 262.02 587.851 261.003C588.345 259.98 589.033 259.182 589.913 258.608C590.8 258.028 591.834 257.739 593.016 257.739C593.936 257.739 594.766 257.909 595.504 258.25C596.243 258.591 596.848 259.068 597.32 259.682C597.791 260.295 598.084 261.011 598.197 261.83H596.186C596.033 261.233 595.692 260.705 595.163 260.244C594.641 259.778 593.936 259.545 593.05 259.545C592.266 259.545 591.578 259.75 590.987 260.159C590.402 260.562 589.945 261.134 589.615 261.872C589.291 262.605 589.129 263.466 589.129 264.455C589.129 265.466 589.288 266.347 589.607 267.097C589.93 267.847 590.385 268.429 590.97 268.844C591.561 269.259 592.254 269.466 593.05 269.466C593.572 269.466 594.047 269.375 594.473 269.193C594.899 269.011 595.26 268.75 595.555 268.409C595.851 268.068 596.061 267.659 596.186 267.182H598.197C598.084 267.955 597.803 268.651 597.354 269.27C596.911 269.884 596.322 270.372 595.589 270.736C594.862 271.094 594.016 271.273 593.05 271.273ZM606.456 271.273C605.274 271.273 604.237 270.991 603.345 270.429C602.459 269.866 601.766 269.08 601.266 268.068C600.771 267.057 600.524 265.875 600.524 264.523C600.524 263.159 600.771 261.969 601.266 260.952C601.766 259.935 602.459 259.145 603.345 258.582C604.237 258.02 605.274 257.739 606.456 257.739C607.638 257.739 608.672 258.02 609.558 258.582C610.45 259.145 611.143 259.935 611.638 260.952C612.138 261.969 612.388 263.159 612.388 264.523C612.388 265.875 612.138 267.057 611.638 268.068C611.143 269.08 610.45 269.866 609.558 270.429C608.672 270.991 607.638 271.273 606.456 271.273ZM606.456 269.466C607.354 269.466 608.092 269.236 608.672 268.776C609.251 268.315 609.68 267.71 609.959 266.96C610.237 266.21 610.376 265.398 610.376 264.523C610.376 263.648 610.237 262.832 609.959 262.077C609.68 261.321 609.251 260.71 608.672 260.244C608.092 259.778 607.354 259.545 606.456 259.545C605.558 259.545 604.82 259.778 604.24 260.244C603.661 260.71 603.232 261.321 602.953 262.077C602.675 262.832 602.536 263.648 602.536 264.523C602.536 265.398 602.675 266.21 602.953 266.96C603.232 267.71 603.661 268.315 604.24 268.776C604.82 269.236 605.558 269.466 606.456 269.466Z" fill="black"/>
<rect x="1754" y="827" width="100" height="200" fill="#969696"/>
<path d="M1717.11 1060V1042.55H1723.01C1724.38 1042.55 1725.5 1042.79 1726.37 1043.29C1727.24 1043.78 1727.89 1044.44 1728.31 1045.27C1728.73 1046.11 1728.94 1047.04 1728.94 1048.07C1728.94 1049.1 1728.73 1050.03 1728.31 1050.87C1727.9 1051.71 1727.26 1052.38 1726.39 1052.88C1725.52 1053.38 1724.4 1053.62 1723.05 1053.62H1718.82V1051.75H1722.98C1723.91 1051.75 1724.67 1051.59 1725.24 1051.26C1725.8 1050.94 1726.22 1050.5 1726.47 1049.95C1726.73 1049.39 1726.86 1048.77 1726.86 1048.07C1726.86 1047.37 1726.73 1046.74 1726.47 1046.19C1726.22 1045.64 1725.8 1045.21 1725.23 1044.9C1724.65 1044.58 1723.89 1044.42 1722.94 1044.42H1719.23V1060H1717.11ZM1746.39 1048H1744.28C1744.15 1047.39 1743.94 1046.86 1743.62 1046.4C1743.32 1045.94 1742.94 1045.55 1742.5 1045.24C1742.06 1044.92 1741.58 1044.68 1741.04 1044.52C1740.51 1044.36 1739.95 1044.28 1739.37 1044.28C1738.31 1044.28 1737.36 1044.55 1736.5 1045.09C1735.65 1045.62 1734.97 1046.41 1734.46 1047.45C1733.96 1048.49 1733.71 1049.76 1733.71 1051.27C1733.71 1052.78 1733.96 1054.06 1734.46 1055.1C1734.97 1056.14 1735.65 1056.93 1736.5 1057.46C1737.36 1057.99 1738.31 1058.26 1739.37 1058.26C1739.95 1058.26 1740.51 1058.18 1741.04 1058.02C1741.58 1057.86 1742.06 1057.63 1742.5 1057.32C1742.94 1057 1743.32 1056.61 1743.62 1056.15C1743.94 1055.68 1744.15 1055.15 1744.28 1054.55H1746.39C1746.23 1055.44 1745.94 1056.24 1745.52 1056.94C1745.1 1057.64 1744.58 1058.24 1743.96 1058.74C1743.33 1059.23 1742.63 1059.6 1741.85 1059.86C1741.08 1060.11 1740.25 1060.24 1739.37 1060.24C1737.88 1060.24 1736.56 1059.88 1735.4 1059.15C1734.24 1058.42 1733.33 1057.39 1732.66 1056.05C1732 1054.7 1731.67 1053.11 1731.67 1051.27C1731.67 1049.43 1732 1047.84 1732.66 1046.5C1733.33 1045.16 1734.24 1044.12 1735.4 1043.4C1736.56 1042.67 1737.88 1042.31 1739.37 1042.31C1740.25 1042.31 1741.08 1042.43 1741.85 1042.69C1742.63 1042.95 1743.33 1043.32 1743.96 1043.82C1744.58 1044.3 1745.1 1044.9 1745.52 1045.61C1745.94 1046.3 1746.23 1047.1 1746.39 1048ZM1764.38 1050.88C1764.38 1055.58 1766.27 1059.38 1769.15 1062.3L1770.59 1061.56C1767.81 1058.7 1766.1 1055.18 1766.1 1050.88C1766.1 1046.61 1767.81 1043.08 1770.59 1040.22L1769.15 1039.48C1766.27 1042.41 1764.38 1046.2 1764.38 1050.88ZM1790.46 1043.27C1790.46 1042.41 1791.18 1041.69 1792.05 1041.69C1792.91 1041.69 1793.63 1042.41 1793.63 1043.27C1793.63 1044.16 1792.91 1044.86 1792.05 1044.86C1791.18 1044.86 1790.46 1044.16 1790.46 1043.27ZM1789.36 1043.27C1789.36 1044.76 1790.56 1045.96 1792.05 1045.96C1793.54 1045.96 1794.74 1044.76 1794.74 1043.27C1794.74 1041.78 1793.54 1040.58 1792.05 1040.58C1790.56 1040.58 1789.36 1041.78 1789.36 1043.27ZM1776.9 1052.8C1776.09 1054.79 1774.72 1057.31 1773.21 1059.33L1775.25 1060.19C1776.59 1058.25 1777.91 1055.78 1778.8 1053.59C1779.81 1051.12 1780.65 1047.57 1780.96 1046.08C1781.08 1045.58 1781.25 1044.86 1781.42 1044.33L1779.28 1043.9C1778.94 1046.66 1777.96 1050.3 1776.9 1052.8ZM1788.74 1051.89C1789.72 1054.43 1790.85 1057.7 1791.45 1060.12L1793.58 1059.45C1792.94 1057.26 1791.66 1053.59 1790.7 1051.22C1789.67 1048.7 1788.14 1045.38 1787.2 1043.63L1785.26 1044.28C1786.29 1046.08 1787.78 1049.42 1788.74 1051.89ZM1802.03 1059.14L1803.81 1060.67C1807.74 1058.85 1810.43 1056.16 1812.33 1053.26C1814.08 1050.57 1815.04 1047.54 1815.62 1044.69C1815.69 1044.26 1815.88 1043.44 1816.07 1042.79L1813.7 1042.48C1813.7 1042.91 1813.62 1043.8 1813.5 1044.42C1813.1 1046.66 1812.35 1049.51 1810.5 1052.25C1808.7 1054.94 1806.02 1057.53 1802.03 1059.14ZM1800.54 1042.77L1798.67 1043.73C1799.66 1045.1 1801.65 1048.5 1802.68 1050.66L1804.58 1049.58C1803.74 1048.02 1801.62 1044.33 1800.54 1042.77ZM1823.8 1043.56V1045.7C1824.38 1045.65 1825.55 1045.6 1826.44 1045.6H1837.96V1058.1C1837.96 1058.97 1837.91 1059.86 1837.91 1060.22H1840.07C1840.05 1059.86 1839.98 1058.78 1839.98 1057.91V1045.5C1839.98 1044.95 1840 1044.18 1840.02 1043.66C1839.54 1043.68 1838.85 1043.7 1838.25 1043.7H1826.44C1825.65 1043.7 1824.62 1043.63 1823.8 1043.56ZM1823.51 1056.81V1058.99C1824.16 1058.92 1825.24 1058.9 1826.22 1058.9H1839.04V1056.93H1826.15C1825.17 1056.93 1824.11 1056.86 1823.51 1056.81ZM1849.14 1042.43L1847.75 1043.9C1849.55 1045.07 1852.53 1047.66 1853.75 1048.91L1855.24 1047.38C1853.92 1046.06 1850.82 1043.56 1849.14 1042.43ZM1847.08 1058.51L1848.33 1060.48C1852.34 1059.74 1855.36 1058.25 1857.78 1056.74C1861.41 1054.46 1864.19 1051.19 1865.82 1048.22L1864.67 1046.15C1863.28 1049.13 1860.38 1052.68 1856.66 1055.01C1854.38 1056.42 1851.26 1057.89 1847.08 1058.51ZM1874.99 1050.88C1874.99 1046.2 1873.1 1042.41 1870.22 1039.48L1868.78 1040.22C1871.56 1043.08 1873.26 1046.61 1873.26 1050.88C1873.26 1055.18 1871.56 1058.7 1868.78 1061.56L1870.22 1062.3C1873.1 1059.38 1874.99 1055.58 1874.99 1050.88Z" fill="black"/>
<rect x="545.5" y="596.5" width="1003" height="603" stroke="black" stroke-width="3"/>
<rect x="855.5" y="99.5" width="703" height="423" stroke="black" stroke-width="3"/>
<path d="M1204.98 1096.39C1204.98 1099.92 1206.24 1101.68 1212.94 1101.68C1217.44 1101.68 1221.04 1101.4 1224.24 1100.93L1224.35 1097.83C1220.78 1098.55 1217.29 1098.91 1213.12 1098.91C1208.83 1098.91 1207.9 1098.12 1207.9 1095.64C1207.9 1092.07 1207.9 1080.3 1207.9 1076.52C1207.9 1075.48 1208 1074.25 1208.15 1073.21H1204.76C1204.94 1074.25 1204.98 1075.44 1204.98 1076.52C1204.98 1080.34 1204.98 1093.08 1204.98 1096.39ZM1225.9 1080.3L1223.77 1078.64C1223.34 1078.9 1222.62 1079.11 1221.86 1079.29C1219.13 1079.94 1200.73 1083.65 1196.12 1084.19L1196.7 1087.21C1201.02 1086.28 1220.42 1082.39 1221.54 1082.17C1220.46 1084.3 1217.83 1088.26 1215.13 1090.74L1217.62 1092.22C1220.53 1089.26 1223.34 1084.73 1225 1081.74C1225.25 1081.31 1225.61 1080.7 1225.9 1080.3ZM1238.17 1074.65L1236.08 1076.84C1238.78 1078.61 1243.25 1082.5 1245.08 1084.37L1247.32 1082.06C1245.34 1080.08 1240.69 1076.34 1238.17 1074.65ZM1235.08 1098.77L1236.95 1101.72C1242.96 1100.6 1247.5 1098.37 1251.13 1096.1C1256.57 1092.68 1260.74 1087.79 1263.19 1083.32L1261.46 1080.23C1259.38 1084.69 1255.02 1090.02 1249.44 1093.51C1246.02 1095.64 1241.34 1097.83 1235.08 1098.77ZM1291.92 1084.48V1075.94C1291.92 1074.54 1292.06 1073.39 1292.1 1073.03H1288.82C1288.9 1073.35 1289 1074.54 1289 1075.94V1084.69C1289 1094.81 1285.76 1097.9 1279.21 1100.39L1281.62 1102.69C1289.83 1098.98 1291.92 1094.05 1291.92 1084.48ZM1278.92 1073.24H1275.72C1275.83 1074.07 1275.9 1075.08 1275.9 1075.84V1089.05C1275.9 1090.42 1275.76 1091.96 1275.72 1092.29H1278.92C1278.89 1091.96 1278.78 1090.38 1278.78 1089.05V1075.84C1278.78 1074.61 1278.89 1073.57 1278.92 1073.24ZM1268.41 1080.23V1083.32C1268.81 1083.32 1270.43 1083.22 1272.01 1083.22H1295.88C1297.46 1083.22 1298.76 1083.29 1299.16 1083.32V1080.26C1298.65 1080.34 1297.46 1080.48 1295.84 1080.48H1272.01C1270.5 1080.48 1268.74 1080.26 1268.41 1080.23ZM1305.64 1085.41V1088.94C1306.79 1088.87 1308.7 1088.8 1310.68 1088.8C1313.34 1088.8 1327.7 1088.8 1330.44 1088.8C1332.02 1088.8 1333.54 1088.9 1334.29 1088.94V1085.41C1333.46 1085.48 1332.2 1085.63 1330.4 1085.63C1327.74 1085.63 1313.3 1085.63 1310.68 1085.63C1308.62 1085.63 1306.75 1085.52 1305.64 1085.41ZM1358.27 1076.45L1355.28 1076.38C1354.92 1080.12 1354.16 1084.19 1353.12 1087.61C1351.28 1093.69 1349.34 1096.14 1347.65 1096.14C1346.03 1096.14 1343.98 1094.12 1343.98 1089.59C1343.98 1084.3 1348.91 1077.78 1356.83 1077.78C1363.74 1077.78 1367.74 1082.53 1367.74 1088.29C1367.74 1094.52 1363.2 1097.98 1358.59 1099.02C1357.73 1099.2 1356.65 1099.34 1355.5 1099.45L1357.15 1102.12C1365.72 1101 1370.69 1095.96 1370.69 1088.44C1370.69 1081.13 1365.32 1075.19 1356.9 1075.19C1348.08 1075.19 1341.13 1081.99 1341.13 1089.8C1341.13 1095.78 1344.34 1099.45 1347.58 1099.45C1350.89 1099.45 1353.77 1095.64 1355.96 1088.26C1357.08 1084.4 1357.8 1080.19 1358.27 1076.45ZM1389.37 1091.39V1093.48H1403.7V1091.39H1389.37ZM1386.02 1073.6V1075.66H1407.41V1073.6H1386.02ZM1386.89 1077.96V1079.94H1406.51V1077.96H1386.89ZM1384.91 1082.46V1084.51H1408.45V1082.46H1384.91ZM1389.37 1096.21V1098.23H1403.81V1096.21H1389.37ZM1387.54 1086.64V1103.84H1390.06V1088.72H1403.7V1086.64H1387.54ZM1403.05 1086.64V1100.82C1403.05 1101.29 1402.91 1101.43 1402.4 1101.43C1401.9 1101.47 1400.17 1101.47 1398.37 1101.4C1398.7 1102.08 1399.06 1103.09 1399.16 1103.74C1401.72 1103.77 1403.34 1103.74 1404.35 1103.34C1405.36 1102.94 1405.64 1102.22 1405.64 1100.86V1086.64H1403.05ZM1395.24 1070.76V1083.11H1397.9V1070.76H1395.24ZM1379.44 1070.76V1103.84H1381.92V1070.76H1379.44ZM1376.59 1077.71C1376.38 1080.55 1375.8 1084.51 1374.97 1087L1377.06 1087.68C1377.89 1084.98 1378.5 1080.8 1378.61 1078L1376.59 1077.71ZM1382.24 1076.77C1382.96 1078.46 1383.79 1080.7 1384.15 1082.06L1386.02 1081.16C1385.7 1079.83 1384.84 1077.71 1384.04 1076.05L1382.24 1076.77ZM1430.02 1084.69V1086.92H1441.79V1084.69H1430.02ZM1428.65 1072.45V1103.92H1431.13V1074.86H1441.54V1072.45H1428.65ZM1440.24 1072.45V1079.36C1440.24 1079.76 1440.1 1079.9 1439.52 1079.94C1438.94 1079.98 1437.07 1079.98 1434.84 1079.9C1435.2 1080.59 1435.56 1081.56 1435.67 1082.28C1438.44 1082.28 1440.24 1082.24 1441.36 1081.85C1442.47 1081.45 1442.76 1080.73 1442.76 1079.4V1072.45H1440.24ZM1433.54 1086.17L1431.42 1086.71C1433.54 1094.2 1437.54 1100.75 1443.08 1103.88C1443.52 1103.2 1444.34 1102.22 1444.96 1101.68C1439.56 1099.06 1435.49 1092.9 1433.54 1086.17ZM1440.96 1084.69V1085.27C1439.84 1091.86 1436.46 1098.59 1431.06 1102.12C1431.67 1102.58 1432.46 1103.34 1432.86 1103.95C1438.62 1100.06 1442.18 1092.97 1443.59 1085.16L1441.93 1084.55L1441.46 1084.69H1440.96ZM1412.77 1074.47V1076.81H1426.13V1074.47H1412.77ZM1412.34 1094.16V1096.5H1426.6V1094.16H1412.34ZM1411.48 1080.41V1082.75H1427.5V1080.41H1411.48ZM1411.98 1087.9V1090.24H1427.06V1087.9H1411.98ZM1418.32 1070.83V1081.24H1420.84V1070.83H1418.32ZM1418.32 1088.87V1103.81H1420.84V1088.87H1418.32ZM1423.18 1082.6C1422.78 1084.01 1421.99 1086.13 1421.38 1087.46L1423.39 1088.08C1424.08 1086.82 1424.76 1084.94 1425.48 1083.22L1423.18 1082.6ZM1414 1083.18C1414.72 1084.76 1415.4 1086.82 1415.58 1088.11L1417.74 1087.5C1417.56 1086.24 1416.84 1084.19 1416.05 1082.68L1414 1083.18ZM1448.59 1081.16V1088.51H1451.11V1083.58H1476.78V1088.51H1479.41V1081.16H1448.59ZM1452.95 1087.64V1090.16H1473.07V1087.64H1452.95ZM1475.48 1070.65C1469.33 1071.95 1458.24 1072.88 1448.92 1073.32C1449.17 1073.93 1449.49 1074.94 1449.56 1075.62C1458.92 1075.26 1470.16 1074.32 1477.39 1072.81L1475.48 1070.65ZM1451.94 1076.38C1452.91 1077.92 1453.96 1079.98 1454.39 1081.27L1456.84 1080.48C1456.4 1079.18 1455.32 1077.17 1454.28 1075.69L1451.94 1076.38ZM1461.52 1075.62C1462.34 1077.31 1463.1 1079.54 1463.32 1080.95L1465.87 1080.34C1465.66 1078.93 1464.79 1076.74 1463.96 1075.08L1461.52 1075.62ZM1473.83 1075.01C1472.96 1077.02 1471.38 1079.9 1470.12 1081.7L1472.28 1082.46C1473.58 1080.77 1475.27 1078.1 1476.56 1075.8L1473.83 1075.01ZM1472.1 1087.64V1088.11C1468.36 1096.07 1458.64 1099.88 1447.84 1101.36C1448.38 1101.94 1449.13 1103.12 1449.42 1103.81C1460.4 1101.97 1470.59 1097.8 1475.02 1088.65L1473.22 1087.54L1472.71 1087.64H1472.1ZM1456.48 1089.3L1454.1 1090.31C1458.82 1097.8 1467.49 1102.19 1478.47 1103.77C1478.8 1103.02 1479.55 1101.86 1480.09 1101.25C1469.26 1099.96 1460.58 1095.92 1456.48 1089.3ZM1496.54 1072.49V1074.68H1513.21V1072.49H1496.54ZM1496.11 1082.46V1084.69H1513.86V1082.46H1496.11ZM1496.11 1087.46V1089.7H1513.79V1087.46H1496.11ZM1497.16 1099.96V1102.19H1512.78V1099.96H1497.16ZM1493.16 1077.46V1079.72H1516.6V1077.46H1493.16ZM1495.75 1092.47V1103.88H1498.34V1094.66H1511.48V1103.77H1514.18V1092.47H1495.75ZM1491.94 1070.87C1489.85 1076.34 1486.32 1081.7 1482.68 1085.12C1483.19 1085.77 1483.94 1087.18 1484.2 1087.79C1488.19 1083.79 1492.04 1077.74 1494.49 1071.66L1491.94 1070.87ZM1488.19 1080.16V1103.81H1490.78V1077.64L1490.75 1077.6L1488.19 1080.16Z" fill="black"/>
<g clip-path="url(#clip0_102_25)">
<path d="M1310.48 1031.99C1310.48 1026.22 1308.79 1023.26 1305.42 1023.1C1304.08 1023.03 1302.74 1023.25 1301.48 1023.73C1300.46 1024.08 1299.78 1024.43 1299.42 1024.79V1038.57C1301.58 1039.89 1303.5 1040.5 1305.17 1040.42C1308.71 1040.19 1310.48 1037.38 1310.48 1032.01V1031.99ZM1314.65 1032.23C1314.65 1035.16 1313.95 1037.6 1312.53 1039.54C1310.95 1041.73 1308.75 1042.85 1305.95 1042.92C1303.84 1042.98 1301.66 1042.34 1299.42 1040.98V1053.51L1295.79 1052.25V1024.45C1296.39 1023.74 1297.16 1023.13 1298.08 1022.6C1300.24 1021.37 1302.86 1020.74 1305.94 1020.71L1306 1020.76C1308.82 1020.73 1310.99 1021.86 1312.5 1024.15C1313.93 1026.24 1314.63 1028.93 1314.63 1032.22L1314.65 1032.23ZM1336.8 1040.45C1336.8 1044.39 1336.39 1047.11 1335.58 1048.62C1334.78 1050.14 1333.23 1051.35 1330.94 1052.25C1329.09 1052.96 1327.09 1053.35 1324.94 1053.41L1324.34 1051.19C1326.53 1050.9 1328.06 1050.61 1328.96 1050.32C1330.71 1049.74 1331.92 1048.86 1332.58 1047.67C1333.11 1046.7 1333.37 1044.85 1333.37 1042.11V1041.19C1330.89 1042.29 1328.3 1042.83 1325.58 1042.83C1323.86 1042.86 1322.19 1042.28 1320.87 1041.19C1319.34 1040 1318.58 1038.48 1318.58 1036.65V1021.94L1322.21 1020.73V1035.52C1322.21 1037.1 1322.73 1038.32 1323.78 1039.17C1324.83 1040.03 1326.17 1040.44 1327.84 1040.41C1329.52 1040.38 1331.28 1039.74 1333.18 1038.52V1021.26H1336.8V1040.46L1336.8 1040.45ZM1350.95 1042.72L1349.75 1042.77C1347.7 1042.77 1346.11 1042.3 1344.96 1041.35C1343.82 1040.39 1343.26 1039.07 1343.26 1037.39V1023.48H1340.77V1021.26H1343.26V1015.36L1346.88 1014.1V1021.26H1350.95V1023.48H1346.89V1037.29C1346.89 1038.62 1347.25 1039.54 1347.98 1040.11C1348.61 1040.56 1349.6 1040.82 1350.96 1040.88V1042.74L1350.95 1042.72ZM1372.89 1042.43H1369.26V1028.81C1369.26 1027.42 1368.93 1026.23 1368.27 1025.23C1367.93 1024.69 1367.46 1024.25 1366.9 1023.96C1366.34 1023.66 1365.71 1023.52 1365.08 1023.54C1363.42 1023.54 1361.34 1024.39 1358.85 1026.1V1042.44H1355.22V1009.85L1358.85 1008.74V1023.57C1361.16 1021.92 1363.69 1021.1 1366.44 1021.1C1368.36 1021.1 1369.91 1021.73 1371.1 1022.99C1372.29 1024.24 1372.89 1025.81 1372.89 1027.68V1042.42L1372.89 1042.43ZM1392.15 1031.45C1392.15 1029.23 1391.72 1027.4 1390.86 1025.95C1389.84 1024.19 1388.25 1023.26 1386.1 1023.18C1382.13 1023.4 1380.14 1026.17 1380.14 1031.49C1380.14 1033.93 1380.54 1035.96 1381.39 1037.6C1382.45 1039.68 1384.04 1040.71 1386.17 1040.67C1390.16 1040.64 1392.15 1037.57 1392.15 1031.46V1031.45ZM1396.14 1031.48C1396.14 1034.63 1395.31 1037.26 1393.65 1039.36C1391.83 1041.71 1389.32 1042.88 1386.11 1042.88C1382.93 1042.88 1380.46 1041.69 1378.68 1039.36C1377.06 1037.26 1376.25 1034.63 1376.25 1031.48C1376.25 1028.51 1377.13 1026.01 1378.88 1023.98C1380.73 1021.82 1383.17 1020.74 1386.17 1020.74C1389.18 1020.74 1391.63 1021.82 1393.52 1023.98C1395.27 1026.01 1396.15 1028.51 1396.15 1031.48H1396.14ZM1416.9 1042.45H1413.26V1028.04C1413.26 1026.46 1412.77 1025.23 1411.8 1024.34C1410.82 1023.45 1409.52 1023.03 1407.9 1023.06C1406.18 1023.09 1404.54 1023.64 1402.99 1024.7V1042.43H1399.36V1024.25C1401.45 1022.77 1403.37 1021.81 1405.12 1021.34C1406.77 1020.92 1408.23 1020.71 1409.49 1020.71C1410.35 1020.71 1411.16 1020.79 1411.92 1020.96C1413.34 1021.28 1414.5 1021.87 1415.39 1022.74C1416.39 1023.71 1416.88 1024.87 1416.88 1026.22V1042.42L1416.9 1042.45Z" fill="#646464"/>
<path d="M1329 924.987C1329 918.926 1330.67 915.629 1339.88 914.059C1346.13 912.992 1354.15 912.858 1361.62 914.059C1367.53 915.009 1372.5 919.296 1372.5 924.987V944.982C1372.5 950.846 1367.67 955.65 1361.62 955.65H1339.88C1332.5 955.65 1326.28 961.781 1326.28 968.713V978.306H1318.8C1312.48 978.306 1308.8 973.863 1307.25 967.645C1305.17 959.292 1305.25 954.315 1307.25 946.316C1308.98 939.337 1314.52 935.655 1320.84 935.655H1350.76V932.985H1329V924.986L1329 924.987Z" fill="url(#paint0_linear_102_25)"/>
<path d="M1372.5 988.975C1372.5 995.036 1367.1 998.105 1361.62 999.636C1353.38 1001.94 1346.77 1001.59 1339.88 999.636C1334.13 998.003 1329 994.667 1329 988.975V968.98C1329 963.225 1333.93 958.312 1339.88 958.312H1361.62C1368.87 958.312 1375.22 952.213 1375.22 944.982V935.656H1383.38C1389.71 935.656 1392.69 940.24 1394.25 946.317C1396.43 954.756 1396.52 961.067 1394.25 967.646C1392.05 974.036 1389.7 978.307 1383.38 978.307H1350.76V980.977H1372.5V988.975V988.975Z" fill="url(#paint1_linear_102_25)"/>
<path d="M1334.44 923.66C1334.44 921.446 1336.26 919.656 1338.52 919.656C1340.77 919.656 1342.6 921.446 1342.6 923.66C1342.6 925.867 1340.77 927.656 1338.52 927.656C1336.26 927.656 1334.44 925.866 1334.44 923.66ZM1358.91 990.302C1358.91 988.095 1360.74 986.306 1362.98 986.306C1365.24 986.306 1367.06 988.096 1367.06 990.302C1367.06 992.516 1365.24 994.306 1362.98 994.306C1360.74 994.306 1358.91 992.516 1358.91 990.302Z" fill="white"/>
</g>
<path d="M428.061 190.061C428.646 189.475 428.646 188.525 428.061 187.939L418.515 178.393C417.929 177.808 416.979 177.808 416.393 178.393C415.808 178.979 415.808 179.929 416.393 180.515L424.879 189L416.393 197.485C415.808 198.071 415.808 199.021 416.393 199.607C416.979 200.192 417.929 200.192 418.515 199.607L428.061 190.061ZM189 190.5L427 190.5V187.5L189 187.5V190.5Z" fill="black"/>
<path d="M539 188H857" stroke="black" stroke-width="3"/>
<path d="M1037.76 758.52C1036.94 758.654 1036.39 759.425 1036.52 760.243L1038.7 773.565C1038.84 774.382 1039.61 774.936 1040.43 774.802C1041.24 774.668 1041.8 773.897 1041.66 773.08L1039.72 761.238L1051.56 759.296C1052.38 759.162 1052.94 758.391 1052.8 757.573C1052.67 756.756 1051.9 756.202 1051.08 756.336L1037.76 758.52ZM1037.12 761.218L1250.12 914.218L1251.88 911.782L1038.88 758.782L1037.12 761.218Z" fill="black"/>
<path d="M341.939 1069.94C341.354 1070.53 341.354 1071.47 341.939 1072.06L351.485 1081.61C352.071 1082.19 353.021 1082.19 353.607 1081.61C354.192 1081.02 354.192 1080.07 353.607 1079.49L345.121 1071L353.607 1062.51C354.192 1061.93 354.192 1060.98 353.607 1060.39C353.021 1059.81 352.071 1059.81 351.485 1060.39L341.939 1069.94ZM343 1072.5H680V1069.5H343V1072.5Z" fill="black"/>
<path d="M1548 925.5H1754" stroke="black" stroke-width="3"/>
<path d="M812.939 982.061C813.525 982.646 814.475 982.646 815.061 982.061L824.607 972.515C825.192 971.929 825.192 970.979 824.607 970.393C824.021 969.808 823.071 969.808 822.485 970.393L814 978.879L805.515 970.393C804.929 969.808 803.979 969.808 803.393 970.393C802.808 970.979 802.808 971.929 803.393 972.515L812.939 982.061ZM815.5 981V828H812.5V981H815.5Z" fill="black"/>
<rect x="106" y="169" width="20" height="40" fill="#C4C4C4"/>
<path d="M75.32 238.928C75.32 241.28 76.16 242.456 80.624 242.456C83.624 242.456 86.024 242.264 88.16 241.952L88.232 239.888C85.856 240.368 83.528 240.608 80.744 240.608C77.888 240.608 77.264 240.08 77.264 238.424C77.264 236.048 77.264 228.2 77.264 225.68C77.264 224.984 77.336 224.168 77.432 223.472H75.176C75.296 224.168 75.32 224.96 75.32 225.68C75.32 228.224 75.32 236.72 75.32 238.928ZM89.264 228.2L87.848 227.096C87.56 227.264 87.08 227.408 86.576 227.528C84.752 227.96 72.488 230.432 69.416 230.792L69.8 232.808C72.68 232.184 85.616 229.592 86.36 229.448C85.64 230.864 83.888 233.504 82.088 235.16L83.744 236.144C85.688 234.176 87.56 231.152 88.664 229.16C88.832 228.872 89.072 228.464 89.264 228.2ZM97.448 224.432L96.056 225.896C97.856 227.072 100.832 229.664 102.056 230.912L103.544 229.376C102.224 228.056 99.128 225.56 97.448 224.432ZM95.384 240.512L96.632 242.48C100.64 241.736 103.664 240.248 106.088 238.736C109.712 236.456 112.496 233.192 114.128 230.216L112.976 228.152C111.584 231.128 108.68 234.68 104.96 237.008C102.68 238.424 99.56 239.888 95.384 240.512ZM133.28 230.984V225.296C133.28 224.36 133.376 223.592 133.4 223.352H131.216C131.264 223.568 131.336 224.36 131.336 225.296V231.128C131.336 237.872 129.176 239.936 124.808 241.592L126.416 243.128C131.888 240.656 133.28 237.368 133.28 230.984ZM124.616 223.496H122.48C122.552 224.048 122.6 224.72 122.6 225.224V234.032C122.6 234.944 122.504 235.976 122.48 236.192H124.616C124.592 235.976 124.52 234.92 124.52 234.032V225.224C124.52 224.408 124.592 223.712 124.616 223.496ZM117.608 228.152V230.216C117.872 230.216 118.952 230.144 120.008 230.144H135.92C136.976 230.144 137.84 230.192 138.104 230.216V228.176C137.768 228.224 136.976 228.32 135.896 228.32H120.008C119 228.32 117.824 228.176 117.608 228.152ZM142.424 231.608V233.96C143.192 233.912 144.464 233.864 145.784 233.864C147.56 233.864 157.136 233.864 158.96 233.864C160.016 233.864 161.024 233.936 161.528 233.96V231.608C160.976 231.656 160.136 231.752 158.936 231.752C157.16 231.752 147.536 231.752 145.784 231.752C144.416 231.752 143.168 231.68 142.424 231.608Z" fill="black"/>
<path d="M1792.83 783.05C1793.64 783.264 1794.46 782.789 1794.67 781.989L1798.17 768.949C1798.38 768.149 1797.91 767.326 1797.11 767.112C1796.31 766.897 1795.48 767.372 1795.27 768.172L1792.16 779.764L1780.57 776.658C1779.77 776.443 1778.95 776.918 1778.73 777.718C1778.52 778.519 1778.99 779.341 1779.79 779.555L1792.83 783.05ZM1594.7 440.75L1791.92 782.351L1794.52 780.851L1597.3 439.25L1594.7 440.75Z" fill="black"/>
<path d="M1722.32 601.928C1722.32 604.28 1723.16 605.456 1727.62 605.456C1730.62 605.456 1733.02 605.264 1735.16 604.952L1735.23 602.888C1732.86 603.368 1730.53 603.608 1727.74 603.608C1724.89 603.608 1724.26 603.08 1724.26 601.424C1724.26 599.048 1724.26 591.2 1724.26 588.68C1724.26 587.984 1724.34 587.168 1724.43 586.472H1722.18C1722.3 587.168 1722.32 587.96 1722.32 588.68C1722.32 591.224 1722.32 599.72 1722.32 601.928ZM1736.26 591.2L1734.85 590.096C1734.56 590.264 1734.08 590.408 1733.58 590.528C1731.75 590.96 1719.49 593.432 1716.42 593.792L1716.8 595.808C1719.68 595.184 1732.62 592.592 1733.36 592.448C1732.64 593.864 1730.89 596.504 1729.09 598.16L1730.74 599.144C1732.69 597.176 1734.56 594.152 1735.66 592.16C1735.83 591.872 1736.07 591.464 1736.26 591.2ZM1744.45 587.432L1743.06 588.896C1744.86 590.072 1747.83 592.664 1749.06 593.912L1750.54 592.376C1749.22 591.056 1746.13 588.56 1744.45 587.432ZM1742.38 603.512L1743.63 605.48C1747.64 604.736 1750.66 603.248 1753.09 601.736C1756.71 599.456 1759.5 596.192 1761.13 593.216L1759.98 591.152C1758.58 594.128 1755.68 597.68 1751.96 600.008C1749.68 601.424 1746.56 602.888 1742.38 603.512ZM1780.28 593.984V588.296C1780.28 587.36 1780.38 586.592 1780.4 586.352H1778.22C1778.26 586.568 1778.34 587.36 1778.34 588.296V594.128C1778.34 600.872 1776.18 602.936 1771.81 604.592L1773.42 606.128C1778.89 603.656 1780.28 600.368 1780.28 593.984ZM1771.62 586.496H1769.48C1769.55 587.048 1769.6 587.72 1769.6 588.224V597.032C1769.6 597.944 1769.5 598.976 1769.48 599.192H1771.62C1771.59 598.976 1771.52 597.92 1771.52 597.032V588.224C1771.52 587.408 1771.59 586.712 1771.62 586.496ZM1764.61 591.152V593.216C1764.87 593.216 1765.95 593.144 1767.01 593.144H1782.92C1783.98 593.144 1784.84 593.192 1785.1 593.216V591.176C1784.77 591.224 1783.98 591.32 1782.9 591.32H1767.01C1766 591.32 1764.82 591.176 1764.61 591.152ZM1789.42 594.608V596.96C1790.19 596.912 1791.46 596.864 1792.78 596.864C1794.56 596.864 1804.14 596.864 1805.96 596.864C1807.02 596.864 1808.02 596.936 1808.53 596.96V594.608C1807.98 594.656 1807.14 594.752 1805.94 594.752C1804.16 594.752 1794.54 594.752 1792.78 594.752C1791.42 594.752 1790.17 594.68 1789.42 594.608ZM1824.51 588.632L1822.52 588.584C1822.28 591.08 1821.78 593.792 1821.08 596.072C1819.86 600.128 1818.56 601.76 1817.43 601.76C1816.35 601.76 1814.98 600.416 1814.98 597.392C1814.98 593.864 1818.27 589.52 1823.55 589.52C1828.16 589.52 1830.82 592.688 1830.82 596.528C1830.82 600.68 1827.8 602.984 1824.73 603.68C1824.15 603.8 1823.43 603.896 1822.66 603.968L1823.77 605.744C1829.48 605 1832.79 601.64 1832.79 596.624C1832.79 591.752 1829.22 587.792 1823.6 587.792C1817.72 587.792 1813.09 592.328 1813.09 597.536C1813.09 601.52 1815.22 603.968 1817.38 603.968C1819.59 603.968 1821.51 601.424 1822.98 596.504C1823.72 593.936 1824.2 591.128 1824.51 588.632ZM1845.25 598.592V599.984H1854.8V598.592H1845.25ZM1843.02 586.736V588.104H1857.27V586.736H1843.02ZM1843.59 589.64V590.96H1856.67V589.64H1843.59ZM1842.27 592.64V594.008H1857.97V592.64H1842.27ZM1845.25 601.808V603.152H1854.87V601.808H1845.25ZM1844.02 595.424V606.896H1845.7V596.816H1854.8V595.424H1844.02ZM1854.37 595.424V604.88C1854.37 605.192 1854.27 605.288 1853.94 605.288C1853.6 605.312 1852.45 605.312 1851.25 605.264C1851.46 605.72 1851.7 606.392 1851.78 606.824C1853.48 606.848 1854.56 606.824 1855.23 606.56C1855.9 606.296 1856.1 605.816 1856.1 604.904V595.424H1854.37ZM1849.16 584.84V593.072H1850.94V584.84H1849.16ZM1838.62 584.84V606.896H1840.28V584.84H1838.62ZM1836.73 589.472C1836.58 591.368 1836.2 594.008 1835.65 595.664L1837.04 596.12C1837.59 594.32 1838 591.536 1838.07 589.664L1836.73 589.472ZM1840.5 588.848C1840.98 589.976 1841.53 591.464 1841.77 592.376L1843.02 591.776C1842.8 590.888 1842.22 589.472 1841.7 588.368L1840.5 588.848ZM1872.34 594.128V595.616H1880.19V594.128H1872.34ZM1871.43 585.968V606.944H1873.09V587.576H1880.02V585.968H1871.43ZM1879.16 585.968V590.576C1879.16 590.84 1879.06 590.936 1878.68 590.96C1878.3 590.984 1877.05 590.984 1875.56 590.936C1875.8 591.392 1876.04 592.04 1876.11 592.52C1877.96 592.52 1879.16 592.496 1879.9 592.232C1880.65 591.968 1880.84 591.488 1880.84 590.6V585.968H1879.16ZM1874.7 595.112L1873.28 595.472C1874.7 600.464 1877.36 604.832 1881.06 606.92C1881.34 606.464 1881.9 605.816 1882.3 605.456C1878.7 603.704 1875.99 599.6 1874.7 595.112ZM1879.64 594.128V594.512C1878.9 598.904 1876.64 603.392 1873.04 605.744C1873.45 606.056 1873.98 606.56 1874.24 606.968C1878.08 604.376 1880.46 599.648 1881.39 594.44L1880.29 594.032L1879.98 594.128H1879.64ZM1860.85 587.312V588.872H1869.75V587.312H1860.85ZM1860.56 600.44V602H1870.06V600.44H1860.56ZM1859.98 591.272V592.832H1870.66V591.272H1859.98ZM1860.32 596.264V597.824H1870.38V596.264H1860.32ZM1864.54 584.888V591.824H1866.22V584.888H1864.54ZM1864.54 596.912V606.872H1866.22V596.912H1864.54ZM1867.78 592.736C1867.52 593.672 1866.99 595.088 1866.58 595.976L1867.93 596.384C1868.38 595.544 1868.84 594.296 1869.32 593.144L1867.78 592.736ZM1861.66 593.12C1862.14 594.176 1862.6 595.544 1862.72 596.408L1864.16 596C1864.04 595.16 1863.56 593.792 1863.03 592.784L1861.66 593.12ZM1890.63 594.368V596.024H1905.78V594.368H1890.63ZM1891.4 589.424V591.032H1905.06V589.424H1891.4ZM1897.06 590.168V593.744C1897.06 596.216 1896.63 599.744 1890.8 602.096C1891.21 602.408 1891.76 603.032 1892 603.416C1898.05 600.704 1898.86 596.768 1898.86 593.768V590.168H1897.06ZM1899.37 595.424L1897.81 595.76C1898.86 599.672 1901.05 602.264 1904.67 603.536C1904.91 603.056 1905.42 602.36 1905.82 602C1902.39 601.016 1900.28 598.784 1899.37 595.424ZM1889.26 594.32H1884.15V596H1887.51V602.816H1889.26V594.32ZM1889.26 602.024H1887.63C1886.41 603.056 1884.99 604.112 1883.84 604.88L1884.8 606.728C1886.1 605.672 1887.32 604.64 1888.47 603.608C1890.01 605.504 1892.17 606.344 1895.29 606.464C1897.95 606.56 1902.92 606.512 1905.56 606.416C1905.63 605.864 1905.94 605 1906.14 604.568C1903.3 604.76 1897.9 604.832 1895.29 604.736C1892.53 604.616 1890.39 603.8 1889.26 602.024ZM1884.42 586.52C1885.98 587.576 1887.78 589.208 1888.54 590.36L1889.96 589.184C1889.14 588.008 1887.32 586.448 1885.74 585.44L1884.42 586.52ZM1901.91 584.84C1901.41 586.064 1900.42 587.792 1899.68 588.872L1901.14 589.424C1901.94 588.416 1902.92 586.832 1903.74 585.464L1901.91 584.84ZM1892.34 585.56C1893.27 586.76 1894.16 588.416 1894.47 589.496L1896.1 588.776C1895.77 587.672 1894.83 586.088 1893.87 584.936L1892.34 585.56ZM1916.7 585.992V587.456H1927.81V585.992H1916.7ZM1916.41 592.64V594.128H1928.24V592.64H1916.41ZM1916.41 595.976V597.464H1928.19V595.976H1916.41ZM1917.1 604.304V605.792H1927.52V604.304H1917.1ZM1914.44 589.304V590.816H1930.06V589.304H1914.44ZM1916.17 599.312V606.92H1917.9V600.776H1926.66V606.848H1928.46V599.312H1916.17ZM1913.62 584.912C1912.23 588.56 1909.88 592.136 1907.46 594.416C1907.79 594.848 1908.3 595.784 1908.46 596.192C1911.13 593.528 1913.7 589.496 1915.33 585.44L1913.62 584.912ZM1911.13 591.104V606.872H1912.86V589.424L1912.83 589.4L1911.13 591.104Z" fill="black"/>
<path d="M969.403 669.238C968.565 669.238 967.75 669.413 967.028 669.827L944.194 683.189C942.716 684.052 941.818 685.681 941.818 687.414V714.089C941.818 715.821 942.716 717.448 944.194 718.313L950.157 721.801C953.054 723.248 954.122 723.225 955.441 723.225C959.73 723.225 962.18 720.588 962.18 716.005V689.673C962.18 689.301 961.862 689.035 961.501 689.035H958.641C958.274 689.035 957.962 689.301 957.962 689.673V716.005C957.962 718.036 955.874 720.079 952.484 718.362L946.278 714.678C946.059 714.557 945.89 714.343 945.89 714.089V687.413C945.89 687.161 946.057 686.903 946.278 686.775L969.064 673.463C969.167 673.402 969.284 673.37 969.403 673.37C969.523 673.37 969.64 673.402 969.743 673.463L992.529 686.776C992.746 686.908 992.917 687.153 992.917 687.415V714.09C992.917 714.344 992.791 714.605 992.578 714.728L969.743 728.04C969.547 728.158 969.278 728.158 969.064 728.04L963.198 724.504C963.109 724.455 963.009 724.429 962.907 724.429C962.806 724.429 962.706 724.455 962.616 724.504C960.997 725.434 960.693 725.541 959.174 726.075C958.8 726.208 958.232 726.413 959.368 727.058L967.028 731.626C967.75 732.048 968.57 732.269 969.404 732.265C970.237 732.27 971.057 732.05 971.779 731.627L994.614 718.314C996.092 717.443 996.989 715.822 996.989 714.09V687.414C996.989 685.681 996.092 684.055 994.614 683.19L971.779 669.828C971.063 669.414 970.243 669.238 969.404 669.238L969.403 669.238Z" fill="#83CD29"/>
<path d="M975.512 688.298C969.01 688.298 965.137 691.102 965.137 695.766C965.137 700.824 968.981 702.214 975.221 702.839C982.687 703.58 983.269 704.691 983.269 706.18C983.269 708.763 981.237 709.864 976.434 709.864C970.398 709.864 969.072 708.337 968.628 705.296C968.576 704.969 968.327 704.706 967.998 704.706H965.04C964.676 704.706 964.362 705.024 964.362 705.394C964.362 709.288 966.452 713.892 976.434 713.892C983.659 713.892 987.826 711.019 987.826 705.983C987.826 700.992 984.46 699.652 977.451 698.713C970.369 697.763 969.694 697.298 969.694 695.618C969.694 694.231 970.267 692.375 975.512 692.375C980.198 692.375 981.929 693.399 982.639 696.601C982.701 696.901 982.962 697.141 983.269 697.141H986.227C986.409 697.141 986.585 697.027 986.711 696.895C986.835 696.754 986.923 696.595 986.905 696.404C986.447 690.891 982.819 688.298 975.512 688.298V688.298Z" fill="#83CD29"/>
<path d="M835.159 634.262C834.903 634.262 834.652 634.329 834.431 634.457C834.211 634.588 834.028 634.775 833.9 634.999C833.773 635.223 833.705 635.476 833.704 635.735V673.315C833.704 673.684 833.535 674.015 833.219 674.2C833.065 674.291 832.889 674.339 832.71 674.339C832.531 674.339 832.356 674.291 832.201 674.2L826.141 670.663C825.699 670.404 825.197 670.267 824.686 670.267C824.176 670.267 823.674 670.404 823.232 670.663L799.04 684.81C798.135 685.339 797.586 686.356 797.586 687.414V715.71C797.586 716.767 798.136 717.735 799.04 718.264L823.232 732.412C823.674 732.672 824.176 732.809 824.686 732.809C825.197 732.809 825.699 732.672 826.141 732.412L850.333 718.264C850.776 718.006 851.144 717.634 851.399 717.185C851.655 716.737 851.789 716.228 851.788 715.71V645.167C851.787 644.637 851.648 644.117 851.384 643.66C851.12 643.202 850.741 642.824 850.285 642.563L835.886 634.408C835.66 634.281 835.409 634.258 835.159 634.262V634.262ZM679.533 669.582C679.072 669.6 678.638 669.682 678.224 669.925L654.032 684.074C653.588 684.332 653.22 684.704 652.965 685.152C652.71 685.601 652.576 686.11 652.577 686.628L652.626 724.602C652.626 725.13 652.895 725.621 653.353 725.879C653.573 726.013 653.824 726.083 654.08 726.083C654.337 726.083 654.588 726.013 654.808 725.879L669.158 717.528C670.067 716.981 670.661 716.029 670.661 714.973V697.239C670.661 696.181 671.21 695.21 672.116 694.684L678.224 691.099C678.665 690.838 679.168 690.703 679.678 690.705C680.177 690.705 680.689 690.832 681.133 691.099L687.241 694.684C687.685 694.942 688.053 695.314 688.309 695.763C688.564 696.212 688.698 696.721 688.696 697.239V714.973C688.696 716.028 689.296 716.987 690.199 717.527L704.549 725.879C704.769 726.013 705.02 726.083 705.277 726.083C705.533 726.083 705.784 726.013 706.004 725.879C706.225 725.749 706.409 725.563 706.536 725.339C706.664 725.115 706.731 724.86 706.732 724.602L706.779 686.628C706.782 686.11 706.649 685.6 706.393 685.151C706.138 684.702 705.769 684.331 705.325 684.074L681.133 669.925C680.724 669.682 680.288 669.601 679.824 669.582H679.533ZM896.924 669.925C896.418 669.925 895.923 670.055 895.47 670.319L871.277 684.467C870.834 684.725 870.467 685.097 870.211 685.546C869.956 685.994 869.822 686.503 869.823 687.021V715.317C869.823 716.381 870.414 717.345 871.325 717.872L895.324 731.725C896.21 732.237 897.292 732.276 898.184 731.773L912.729 723.569C913.19 723.31 913.502 722.825 913.504 722.292C913.507 722.033 913.441 721.778 913.313 721.553C913.185 721.329 913 721.143 912.777 721.015L888.44 706.867C887.984 706.603 887.664 706.07 887.664 705.54V696.699C887.664 696.169 887.987 695.685 888.44 695.421L896.003 691C896.224 690.87 896.475 690.802 896.73 690.802C896.985 690.802 897.236 690.87 897.457 691L905.02 695.421C905.241 695.55 905.425 695.736 905.553 695.96C905.681 696.184 905.748 696.439 905.747 696.698V703.674C905.747 703.932 905.814 704.187 905.941 704.411C906.069 704.635 906.253 704.821 906.474 704.95C906.928 705.216 907.476 705.217 907.928 704.95L922.425 696.404C922.867 696.145 923.234 695.772 923.49 695.324C923.745 694.876 923.88 694.367 923.88 693.849V687.022C923.88 685.967 923.327 684.997 922.425 684.467L898.378 670.319C897.936 670.06 897.434 669.924 896.924 669.926V669.925ZM824.589 691.049C824.716 691.049 824.864 691.081 824.977 691.147L833.268 696.01C833.493 696.142 833.656 696.386 833.656 696.649V706.375C833.656 706.639 833.494 706.883 833.268 707.014L824.977 711.878C824.866 711.942 824.741 711.975 824.614 711.975C824.486 711.975 824.361 711.942 824.25 711.878L815.96 707.014C815.734 706.882 815.572 706.639 815.572 706.375V696.649C815.572 696.385 815.735 696.143 815.96 696.01L824.25 691.148C824.352 691.083 824.47 691.05 824.59 691.05V691.049H824.589Z" fill="#404137"/>
<path d="M752.207 669.778C751.703 669.778 751.204 669.908 750.752 670.171L726.56 684.27C725.655 684.798 725.105 685.817 725.105 686.873V715.169C725.105 716.227 725.656 717.194 726.56 717.724L750.752 731.871C751.194 732.131 751.696 732.268 752.207 732.268C752.718 732.268 753.22 732.131 753.661 731.871L777.854 717.724C778.296 717.466 778.664 717.093 778.919 716.645C779.175 716.196 779.309 715.687 779.308 715.169V686.873C779.308 685.815 778.758 684.798 777.854 684.27L753.661 670.171C753.219 669.912 752.717 669.777 752.207 669.778V669.778ZM896.875 695.028C896.779 695.028 896.672 695.028 896.585 695.077L891.931 697.828C891.844 697.877 891.771 697.948 891.72 698.035C891.669 698.121 891.641 698.219 891.64 698.32V703.723C891.64 703.927 891.756 704.113 891.931 704.215L896.585 706.917C896.759 707.019 896.945 707.019 897.118 706.917L901.772 704.214C901.858 704.165 901.931 704.094 901.982 704.008C902.033 703.922 902.061 703.824 902.063 703.723V698.319C902.061 698.219 902.033 698.121 901.982 698.035C901.931 697.949 901.858 697.877 901.772 697.828L897.118 695.077C897.032 695.026 896.972 695.029 896.875 695.029V695.028Z" fill="#83CD29"/>
<path d="M1168.32 801.928C1168.32 804.28 1169.16 805.456 1173.62 805.456C1176.62 805.456 1179.02 805.264 1181.16 804.952L1181.23 802.888C1178.86 803.368 1176.53 803.608 1173.74 803.608C1170.89 803.608 1170.26 803.08 1170.26 801.424C1170.26 799.048 1170.26 791.2 1170.26 788.68C1170.26 787.984 1170.34 787.168 1170.43 786.472H1168.18C1168.3 787.168 1168.32 787.96 1168.32 788.68C1168.32 791.224 1168.32 799.72 1168.32 801.928ZM1182.26 791.2L1180.85 790.096C1180.56 790.264 1180.08 790.408 1179.58 790.528C1177.75 790.96 1165.49 793.432 1162.42 793.792L1162.8 795.808C1165.68 795.184 1178.62 792.592 1179.36 792.448C1178.64 793.864 1176.89 796.504 1175.09 798.16L1176.74 799.144C1178.69 797.176 1180.56 794.152 1181.66 792.16C1181.83 791.872 1182.07 791.464 1182.26 791.2ZM1190.45 787.432L1189.06 788.896C1190.86 790.072 1193.83 792.664 1195.06 793.912L1196.54 792.376C1195.22 791.056 1192.13 788.56 1190.45 787.432ZM1188.38 803.512L1189.63 805.48C1193.64 804.736 1196.66 803.248 1199.09 801.736C1202.71 799.456 1205.5 796.192 1207.13 793.216L1205.98 791.152C1204.58 794.128 1201.68 797.68 1197.96 800.008C1195.68 801.424 1192.56 802.888 1188.38 803.512ZM1226.28 793.984V788.296C1226.28 787.36 1226.38 786.592 1226.4 786.352H1224.22C1224.26 786.568 1224.34 787.36 1224.34 788.296V794.128C1224.34 800.872 1222.18 802.936 1217.81 804.592L1219.42 806.128C1224.89 803.656 1226.28 800.368 1226.28 793.984ZM1217.62 786.496H1215.48C1215.55 787.048 1215.6 787.72 1215.6 788.224V797.032C1215.6 797.944 1215.5 798.976 1215.48 799.192H1217.62C1217.59 798.976 1217.52 797.92 1217.52 797.032V788.224C1217.52 787.408 1217.59 786.712 1217.62 786.496ZM1210.61 791.152V793.216C1210.87 793.216 1211.95 793.144 1213.01 793.144H1228.92C1229.98 793.144 1230.84 793.192 1231.1 793.216V791.176C1230.77 791.224 1229.98 791.32 1228.9 791.32H1213.01C1212 791.32 1210.82 791.176 1210.61 791.152ZM1235.42 794.608V796.96C1236.19 796.912 1237.46 796.864 1238.78 796.864C1240.56 796.864 1250.14 796.864 1251.96 796.864C1253.02 796.864 1254.02 796.936 1254.53 796.96V794.608C1253.98 794.656 1253.14 794.752 1251.94 794.752C1250.16 794.752 1240.54 794.752 1238.78 794.752C1237.42 794.752 1236.17 794.68 1235.42 794.608ZM1270.51 788.632L1268.52 788.584C1268.28 791.08 1267.78 793.792 1267.08 796.072C1265.86 800.128 1264.56 801.76 1263.43 801.76C1262.35 801.76 1260.98 800.416 1260.98 797.392C1260.98 793.864 1264.27 789.52 1269.55 789.52C1274.16 789.52 1276.82 792.688 1276.82 796.528C1276.82 800.68 1273.8 802.984 1270.73 803.68C1270.15 803.8 1269.43 803.896 1268.66 803.968L1269.77 805.744C1275.48 805 1278.79 801.64 1278.79 796.624C1278.79 791.752 1275.22 787.792 1269.6 787.792C1263.72 787.792 1259.09 792.328 1259.09 797.536C1259.09 801.52 1261.22 803.968 1263.38 803.968C1265.59 803.968 1267.51 801.424 1268.98 796.504C1269.72 793.936 1270.2 791.128 1270.51 788.632ZM1291.25 798.592V799.984H1300.8V798.592H1291.25ZM1289.02 786.736V788.104H1303.27V786.736H1289.02ZM1289.59 789.64V790.96H1302.67V789.64H1289.59ZM1288.27 792.64V794.008H1303.97V792.64H1288.27ZM1291.25 801.808V803.152H1300.87V801.808H1291.25ZM1290.02 795.424V806.896H1291.7V796.816H1300.8V795.424H1290.02ZM1300.37 795.424V804.88C1300.37 805.192 1300.27 805.288 1299.94 805.288C1299.6 805.312 1298.45 805.312 1297.25 805.264C1297.46 805.72 1297.7 806.392 1297.78 806.824C1299.48 806.848 1300.56 806.824 1301.23 806.56C1301.9 806.296 1302.1 805.816 1302.1 804.904V795.424H1300.37ZM1295.16 784.84V793.072H1296.94V784.84H1295.16ZM1284.62 784.84V806.896H1286.28V784.84H1284.62ZM1282.73 789.472C1282.58 791.368 1282.2 794.008 1281.65 795.664L1283.04 796.12C1283.59 794.32 1284 791.536 1284.07 789.664L1282.73 789.472ZM1286.5 788.848C1286.98 789.976 1287.53 791.464 1287.77 792.376L1289.02 791.776C1288.8 790.888 1288.22 789.472 1287.7 788.368L1286.5 788.848ZM1318.34 794.128V795.616H1326.19V794.128H1318.34ZM1317.43 785.968V806.944H1319.09V787.576H1326.02V785.968H1317.43ZM1325.16 785.968V790.576C1325.16 790.84 1325.06 790.936 1324.68 790.96C1324.3 790.984 1323.05 790.984 1321.56 790.936C1321.8 791.392 1322.04 792.04 1322.11 792.52C1323.96 792.52 1325.16 792.496 1325.9 792.232C1326.65 791.968 1326.84 791.488 1326.84 790.6V785.968H1325.16ZM1320.7 795.112L1319.28 795.472C1320.7 800.464 1323.36 804.832 1327.06 806.92C1327.34 806.464 1327.9 805.816 1328.3 805.456C1324.7 803.704 1321.99 799.6 1320.7 795.112ZM1325.64 794.128V794.512C1324.9 798.904 1322.64 803.392 1319.04 805.744C1319.45 806.056 1319.98 806.56 1320.24 806.968C1324.08 804.376 1326.46 799.648 1327.39 794.44L1326.29 794.032L1325.98 794.128H1325.64ZM1306.85 787.312V788.872H1315.75V787.312H1306.85ZM1306.56 800.44V802H1316.06V800.44H1306.56ZM1305.98 791.272V792.832H1316.66V791.272H1305.98ZM1306.32 796.264V797.824H1316.38V796.264H1306.32ZM1310.54 784.888V791.824H1312.22V784.888H1310.54ZM1310.54 796.912V806.872H1312.22V796.912H1310.54ZM1313.78 792.736C1313.52 793.672 1312.99 795.088 1312.58 795.976L1313.93 796.384C1314.38 795.544 1314.84 794.296 1315.32 793.144L1313.78 792.736ZM1307.66 793.12C1308.14 794.176 1308.6 795.544 1308.72 796.408L1310.16 796C1310.04 795.16 1309.56 793.792 1309.03 792.784L1307.66 793.12ZM1336.63 794.368V796.024H1351.78V794.368H1336.63ZM1337.4 789.424V791.032H1351.06V789.424H1337.4ZM1343.06 790.168V793.744C1343.06 796.216 1342.63 799.744 1336.8 802.096C1337.21 802.408 1337.76 803.032 1338 803.416C1344.05 800.704 1344.86 796.768 1344.86 793.768V790.168H1343.06ZM1345.37 795.424L1343.81 795.76C1344.86 799.672 1347.05 802.264 1350.67 803.536C1350.91 803.056 1351.42 802.36 1351.82 802C1348.39 801.016 1346.28 798.784 1345.37 795.424ZM1335.26 794.32H1330.15V796H1333.51V802.816H1335.26V794.32ZM1335.26 802.024H1333.63C1332.41 803.056 1330.99 804.112 1329.84 804.88L1330.8 806.728C1332.1 805.672 1333.32 804.64 1334.47 803.608C1336.01 805.504 1338.17 806.344 1341.29 806.464C1343.95 806.56 1348.92 806.512 1351.56 806.416C1351.63 805.864 1351.94 805 1352.14 804.568C1349.3 804.76 1343.9 804.832 1341.29 804.736C1338.53 804.616 1336.39 803.8 1335.26 802.024ZM1330.42 786.52C1331.98 787.576 1333.78 789.208 1334.54 790.36L1335.96 789.184C1335.14 788.008 1333.32 786.448 1331.74 785.44L1330.42 786.52ZM1347.91 784.84C1347.41 786.064 1346.42 787.792 1345.68 788.872L1347.14 789.424C1347.94 788.416 1348.92 786.832 1349.74 785.464L1347.91 784.84ZM1338.34 785.56C1339.27 786.76 1340.16 788.416 1340.47 789.496L1342.1 788.776C1341.77 787.672 1340.83 786.088 1339.87 784.936L1338.34 785.56ZM1362.7 785.992V787.456H1373.81V785.992H1362.7ZM1362.41 792.64V794.128H1374.24V792.64H1362.41ZM1362.41 795.976V797.464H1374.19V795.976H1362.41ZM1363.1 804.304V805.792H1373.52V804.304H1363.1ZM1360.44 789.304V790.816H1376.06V789.304H1360.44ZM1362.17 799.312V806.92H1363.9V800.776H1372.66V806.848H1374.46V799.312H1362.17ZM1359.62 784.912C1358.23 788.56 1355.88 792.136 1353.46 794.416C1353.79 794.848 1354.3 795.784 1354.46 796.192C1357.13 793.528 1359.7 789.496 1361.33 785.44L1359.62 784.912ZM1357.13 791.104V806.872H1358.86V789.424L1358.83 789.4L1357.13 791.104Z" fill="black"/>
<path d="M724.32 772.928C724.32 775.28 725.16 776.456 729.624 776.456C732.624 776.456 735.024 776.264 737.16 775.952L737.232 773.888C734.856 774.368 732.528 774.608 729.744 774.608C726.888 774.608 726.264 774.08 726.264 772.424C726.264 770.048 726.264 762.2 726.264 759.68C726.264 758.984 726.336 758.168 726.432 757.472H724.176C724.296 758.168 724.32 758.96 724.32 759.68C724.32 762.224 724.32 770.72 724.32 772.928ZM738.264 762.2L736.848 761.096C736.56 761.264 736.08 761.408 735.576 761.528C733.752 761.96 721.488 764.432 718.416 764.792L718.8 766.808C721.68 766.184 734.616 763.592 735.36 763.448C734.64 764.864 732.888 767.504 731.088 769.16L732.744 770.144C734.688 768.176 736.56 765.152 737.664 763.16C737.832 762.872 738.072 762.464 738.264 762.2ZM746.448 758.432L745.056 759.896C746.856 761.072 749.832 763.664 751.056 764.912L752.544 763.376C751.224 762.056 748.128 759.56 746.448 758.432ZM744.384 774.512L745.632 776.48C749.64 775.736 752.664 774.248 755.088 772.736C758.712 770.456 761.496 767.192 763.128 764.216L761.976 762.152C760.584 765.128 757.68 768.68 753.96 771.008C751.68 772.424 748.56 773.888 744.384 774.512ZM782.28 764.984V759.296C782.28 758.36 782.376 757.592 782.4 757.352H780.216C780.264 757.568 780.336 758.36 780.336 759.296V765.128C780.336 771.872 778.176 773.936 773.808 775.592L775.416 777.128C780.888 774.656 782.28 771.368 782.28 764.984ZM773.616 757.496H771.48C771.552 758.048 771.6 758.72 771.6 759.224V768.032C771.6 768.944 771.504 769.976 771.48 770.192H773.616C773.592 769.976 773.52 768.92 773.52 768.032V759.224C773.52 758.408 773.592 757.712 773.616 757.496ZM766.608 762.152V764.216C766.872 764.216 767.952 764.144 769.008 764.144H784.92C785.976 764.144 786.84 764.192 787.104 764.216V762.176C786.768 762.224 785.976 762.32 784.896 762.32H769.008C768 762.32 766.824 762.176 766.608 762.152ZM791.424 765.608V767.96C792.192 767.912 793.464 767.864 794.784 767.864C796.56 767.864 806.136 767.864 807.96 767.864C809.016 767.864 810.024 767.936 810.528 767.96V765.608C809.976 765.656 809.136 765.752 807.936 765.752C806.16 765.752 796.536 765.752 794.784 765.752C793.416 765.752 792.168 765.68 791.424 765.608ZM826.512 759.632L824.52 759.584C824.28 762.08 823.776 764.792 823.08 767.072C821.856 771.128 820.56 772.76 819.432 772.76C818.352 772.76 816.984 771.416 816.984 768.392C816.984 764.864 820.272 760.52 825.552 760.52C830.16 760.52 832.824 763.688 832.824 767.528C832.824 771.68 829.8 773.984 826.728 774.68C826.152 774.8 825.432 774.896 824.664 774.968L825.768 776.744C831.48 776 834.792 772.64 834.792 767.624C834.792 762.752 831.216 758.792 825.6 758.792C819.72 758.792 815.088 763.328 815.088 768.536C815.088 772.52 817.224 774.968 819.384 774.968C821.592 774.968 823.512 772.424 824.976 767.504C825.72 764.936 826.2 762.128 826.512 759.632ZM847.248 769.592V770.984H856.8V769.592H847.248ZM845.016 757.736V759.104H859.272V757.736H845.016ZM845.592 760.64V761.96H858.672V760.64H845.592ZM844.272 763.64V765.008H859.968V763.64H844.272ZM847.248 772.808V774.152H856.872V772.808H847.248ZM846.024 766.424V777.896H847.704V767.816H856.8V766.424H846.024ZM856.368 766.424V775.88C856.368 776.192 856.272 776.288 855.936 776.288C855.6 776.312 854.448 776.312 853.248 776.264C853.464 776.72 853.704 777.392 853.776 777.824C855.48 777.848 856.56 777.824 857.232 777.56C857.904 777.296 858.096 776.816 858.096 775.904V766.424H856.368ZM851.16 755.84V764.072H852.936V755.84H851.16ZM840.624 755.84V777.896H842.28V755.84H840.624ZM838.728 760.472C838.584 762.368 838.2 765.008 837.648 766.664L839.04 767.12C839.592 765.32 840 762.536 840.072 760.664L838.728 760.472ZM842.496 759.848C842.976 760.976 843.528 762.464 843.768 763.376L845.016 762.776C844.8 761.888 844.224 760.472 843.696 759.368L842.496 759.848ZM874.344 765.128V766.616H882.192V765.128H874.344ZM873.432 756.968V777.944H875.088V758.576H882.024V756.968H873.432ZM881.16 756.968V761.576C881.16 761.84 881.064 761.936 880.68 761.96C880.296 761.984 879.048 761.984 877.56 761.936C877.8 762.392 878.04 763.04 878.112 763.52C879.96 763.52 881.16 763.496 881.904 763.232C882.648 762.968 882.84 762.488 882.84 761.6V756.968H881.16ZM876.696 766.112L875.28 766.472C876.696 771.464 879.36 775.832 883.056 777.92C883.344 777.464 883.896 776.816 884.304 776.456C880.704 774.704 877.992 770.6 876.696 766.112ZM881.64 765.128V765.512C880.896 769.904 878.64 774.392 875.04 776.744C875.448 777.056 875.976 777.56 876.24 777.968C880.08 775.376 882.456 770.648 883.392 765.44L882.288 765.032L881.976 765.128H881.64ZM862.848 758.312V759.872H871.752V758.312H862.848ZM862.56 771.44V773H872.064V771.44H862.56ZM861.984 762.272V763.832H872.664V762.272H861.984ZM862.32 767.264V768.824H872.376V767.264H862.32ZM866.544 755.888V762.824H868.224V755.888H866.544ZM866.544 767.912V777.872H868.224V767.912H866.544ZM869.784 763.736C869.52 764.672 868.992 766.088 868.584 766.976L869.928 767.384C870.384 766.544 870.84 765.296 871.32 764.144L869.784 763.736ZM863.664 764.12C864.144 765.176 864.6 766.544 864.72 767.408L866.16 767C866.04 766.16 865.56 764.792 865.032 763.784L863.664 764.12ZM886.728 762.776V767.672H888.408V764.384H905.52V767.672H907.272V762.776H886.728ZM889.632 767.096V768.776H903.048V767.096H889.632ZM904.656 755.768C900.552 756.632 893.16 757.256 886.944 757.544C887.112 757.952 887.328 758.624 887.376 759.08C893.616 758.84 901.104 758.216 905.928 757.208L904.656 755.768ZM888.96 759.584C889.608 760.616 890.304 761.984 890.592 762.848L892.224 762.32C891.936 761.456 891.216 760.112 890.52 759.128L888.96 759.584ZM895.344 759.08C895.896 760.208 896.4 761.696 896.544 762.632L898.248 762.224C898.104 761.288 897.528 759.824 896.976 758.72L895.344 759.08ZM903.552 758.672C902.976 760.016 901.92 761.936 901.08 763.136L902.52 763.64C903.384 762.512 904.512 760.736 905.376 759.2L903.552 758.672ZM902.4 767.096V767.408C899.904 772.712 893.424 775.256 886.224 776.24C886.584 776.624 887.088 777.416 887.28 777.872C894.6 776.648 901.392 773.864 904.344 767.768L903.144 767.024L902.808 767.096H902.4ZM891.984 768.2L890.4 768.872C893.544 773.864 899.328 776.792 906.648 777.848C906.864 777.344 907.368 776.576 907.728 776.168C900.504 775.304 894.72 772.616 891.984 768.2ZM918.696 756.992V758.456H929.808V756.992H918.696ZM918.408 763.64V765.128H930.24V763.64H918.408ZM918.408 766.976V768.464H930.192V766.976H918.408ZM919.104 775.304V776.792H929.52V775.304H919.104ZM916.44 760.304V761.816H932.064V760.304H916.44ZM918.168 770.312V777.92H919.896V771.776H928.656V777.848H930.456V770.312H918.168ZM915.624 755.912C914.232 759.56 911.88 763.136 909.456 765.416C909.792 765.848 910.296 766.784 910.464 767.192C913.128 764.528 915.696 760.496 917.328 756.44L915.624 755.912ZM913.128 762.104V777.872H914.856V760.424L914.832 760.4L913.128 762.104Z" fill="black"/>
<circle cx="172" cy="953" r="75" fill="#C4C4C4"/>
<path d="M257 1113C257 1101.84 254.801 1090.78 250.53 1080.47C246.258 1070.16 239.997 1060.79 232.104 1052.9C224.211 1045 214.841 1038.74 204.528 1034.47C194.215 1030.2 183.162 1028 172 1028C160.838 1028 149.785 1030.2 139.472 1034.47C129.159 1038.74 119.789 1045 111.896 1052.9C104.003 1060.79 97.7419 1070.16 93.4702 1080.47C89.1986 1090.78 87 1101.84 87 1113L172 1113H257Z" fill="#C4C4C4"/>
<path d="M101.176 1151.09V1152.77H112.6V1151.09H101.176ZM114.208 1146.7V1159.97H115.96V1146.7H114.208ZM106.216 1145.88V1165.9H107.992V1145.88H106.216ZM120.112 1144.3V1163.54C120.112 1164 119.92 1164.14 119.464 1164.14C119.008 1164.17 117.52 1164.17 115.792 1164.12C116.08 1164.65 116.368 1165.44 116.464 1165.94C118.672 1165.97 120.016 1165.92 120.808 1165.61C121.576 1165.32 121.888 1164.77 121.888 1163.52V1144.3H120.112ZM110.992 1143.98C108.736 1144.99 104.56 1145.81 101.008 1146.31C101.224 1146.7 101.488 1147.32 101.56 1147.75C105.208 1147.27 109.552 1146.48 112.336 1145.38L110.992 1143.98ZM106.144 1151.86C105.088 1155.07 102.76 1158.89 100.648 1160.9C100.96 1161.36 101.416 1162.08 101.632 1162.61C103.864 1160.33 106.216 1156.03 107.44 1152.38L106.144 1151.86ZM107.752 1154.33L106.768 1155.29C107.872 1156.22 110.488 1158.74 111.472 1159.85L112.528 1158.34C111.76 1157.66 108.664 1154.98 107.752 1154.33ZM128.68 1145.54V1147.27H144.208V1145.54H128.68ZM128.68 1151.14V1152.84H144.184V1151.14H128.68ZM128.56 1156.87V1158.58H144.232V1156.87H128.56ZM127.672 1145.54V1154.23C127.672 1157.62 127.408 1161.89 124.768 1164.86C125.152 1165.1 125.872 1165.7 126.16 1166.06C129.016 1162.87 129.448 1157.9 129.448 1154.26V1145.54H127.672ZM143.488 1145.54V1163.47C143.488 1163.93 143.32 1164.07 142.864 1164.1C142.408 1164.1 140.776 1164.12 139.072 1164.05C139.336 1164.53 139.624 1165.32 139.696 1165.8C141.976 1165.82 143.368 1165.8 144.184 1165.51C144.976 1165.2 145.264 1164.65 145.264 1163.47V1145.54H143.488ZM135.208 1146.19V1165.7H137.032V1146.19H135.208ZM166.792 1148.59L165.184 1147.82C164.92 1147.94 164.176 1148.04 163.696 1148.04C162.016 1148.04 155.992 1148.04 154.864 1148.04C154.072 1148.04 153.304 1147.97 152.584 1147.9V1150.03C153.328 1149.96 153.976 1149.94 154.888 1149.94C156.016 1149.94 162.232 1149.94 164.32 1149.94C164.272 1151.71 163.12 1159.01 162.712 1161.1H164.872C165.208 1158.98 166.336 1151.81 166.6 1149.38C166.624 1149.19 166.696 1148.83 166.792 1148.59ZM149.896 1160.45V1162.66C150.616 1162.58 151.336 1162.54 152.008 1162.54H168.184C168.688 1162.54 169.552 1162.56 170.2 1162.66V1160.45C169.576 1160.52 168.928 1160.59 168.184 1160.59H152.008C151.336 1160.59 150.592 1160.57 149.896 1160.45ZM174.424 1153.61V1155.96C175.192 1155.91 176.464 1155.86 177.784 1155.86C179.56 1155.86 189.136 1155.86 190.96 1155.86C192.016 1155.86 193.024 1155.94 193.528 1155.96V1153.61C192.976 1153.66 192.136 1153.75 190.936 1153.75C189.16 1153.75 179.536 1153.75 177.784 1153.75C176.416 1153.75 175.168 1153.68 174.424 1153.61ZM214.635 1145.71L213.483 1146.07C213.963 1146.98 214.515 1148.42 214.851 1149.43L216.051 1149.02C215.715 1148.06 215.091 1146.58 214.635 1145.71ZM217.035 1144.97L215.859 1145.33C216.363 1146.24 216.891 1147.61 217.275 1148.69L218.475 1148.28C218.115 1147.32 217.491 1145.86 217.035 1144.97ZM212.355 1153.42V1147.73C212.355 1146.79 212.451 1146 212.475 1145.76H210.315C210.363 1146 210.435 1146.79 210.435 1147.73V1153.56C210.435 1160.28 208.251 1162.34 203.883 1164.02L205.515 1165.54C210.987 1163.09 212.355 1159.8 212.355 1153.42ZM203.715 1145.93H201.579C201.651 1146.46 201.675 1147.15 201.675 1147.66V1156.46C201.675 1157.38 201.603 1158.38 201.579 1158.62H203.691C203.667 1158.38 203.595 1157.33 203.595 1156.46V1147.66C203.595 1146.82 203.691 1146.14 203.715 1145.93ZM196.683 1150.58V1152.65C196.971 1152.62 198.051 1152.58 199.107 1152.58H214.995C216.051 1152.58 216.939 1152.6 217.203 1152.65V1150.61C216.867 1150.66 216.051 1150.73 214.995 1150.73H199.107C198.075 1150.73 196.899 1150.61 196.683 1150.58ZM221.955 1153.61V1155.96C222.723 1155.91 223.995 1155.86 225.315 1155.86C227.091 1155.86 236.667 1155.86 238.491 1155.86C239.547 1155.86 240.555 1155.94 241.059 1155.96V1153.61C240.507 1153.66 239.667 1153.75 238.467 1153.75C236.691 1153.75 227.067 1153.75 225.315 1153.75C223.947 1153.75 222.699 1153.68 221.955 1153.61Z" fill="black"/>
<path d="M1413 399H1436.98V438.035H1439.02V399H1463V449H1452.04V409.965H1449.99V449H1426.01V409.965L1423.96 410.038V449H1413V399ZM1459.35 439.643H1456.42V444.614H1459.35V439.643Z" fill="black"/>
<path d="M1368.11 464.545H1370.64L1376.57 479.034H1376.77L1382.7 464.545H1385.23V482H1383.25V468.739H1383.08L1377.62 482H1375.72L1370.26 468.739H1370.09V482H1368.11V464.545ZM1389.19 482V468.909H1391.2V482H1389.19ZM1390.22 466.727C1389.82 466.727 1389.49 466.594 1389.2 466.327C1388.92 466.06 1388.78 465.739 1388.78 465.364C1388.78 464.989 1388.92 464.668 1389.2 464.401C1389.49 464.134 1389.82 464 1390.22 464C1390.61 464 1390.94 464.134 1391.22 464.401C1391.5 464.668 1391.65 464.989 1391.65 465.364C1391.65 465.739 1391.5 466.06 1391.22 466.327C1390.94 466.594 1390.61 466.727 1390.22 466.727ZM1400.21 482.273C1398.98 482.273 1397.92 481.983 1397.04 481.403C1396.15 480.824 1395.47 480.026 1394.99 479.009C1394.51 477.991 1394.27 476.83 1394.27 475.523C1394.27 474.193 1394.52 473.02 1395.01 472.003C1395.5 470.98 1396.19 470.182 1397.07 469.608C1397.96 469.028 1398.99 468.739 1400.17 468.739C1401.09 468.739 1401.92 468.909 1402.66 469.25C1403.4 469.591 1404 470.068 1404.48 470.682C1404.95 471.295 1405.24 472.011 1405.35 472.83H1403.34C1403.19 472.233 1402.85 471.705 1402.32 471.244C1401.8 470.778 1401.09 470.545 1400.21 470.545C1399.42 470.545 1398.73 470.75 1398.14 471.159C1397.56 471.562 1397.1 472.134 1396.77 472.872C1396.45 473.605 1396.29 474.466 1396.29 475.455C1396.29 476.466 1396.44 477.347 1396.76 478.097C1397.09 478.847 1397.54 479.429 1398.13 479.844C1398.72 480.259 1399.41 480.466 1400.21 480.466C1400.73 480.466 1401.2 480.375 1401.63 480.193C1402.06 480.011 1402.42 479.75 1402.71 479.409C1403.01 479.068 1403.22 478.659 1403.34 478.182H1405.35C1405.24 478.955 1404.96 479.651 1404.51 480.27C1404.07 480.884 1403.48 481.372 1402.75 481.736C1402.02 482.094 1401.17 482.273 1400.21 482.273ZM1408.29 482V468.909H1410.24V470.886H1410.37C1410.61 470.239 1411.04 469.713 1411.67 469.31C1412.29 468.906 1413 468.705 1413.78 468.705C1413.93 468.705 1414.12 468.707 1414.34 468.713C1414.56 468.719 1414.73 468.727 1414.84 468.739V470.784C1414.77 470.767 1414.62 470.741 1414.37 470.707C1414.13 470.668 1413.88 470.648 1413.61 470.648C1412.98 470.648 1412.41 470.781 1411.91 471.048C1411.41 471.31 1411.02 471.673 1410.73 472.139C1410.45 472.599 1410.31 473.125 1410.31 473.716V482H1408.29ZM1422.14 482.273C1420.96 482.273 1419.92 481.991 1419.03 481.429C1418.15 480.866 1417.45 480.08 1416.95 479.068C1416.46 478.057 1416.21 476.875 1416.21 475.523C1416.21 474.159 1416.46 472.969 1416.95 471.952C1417.45 470.935 1418.15 470.145 1419.03 469.582C1419.92 469.02 1420.96 468.739 1422.14 468.739C1423.33 468.739 1424.36 469.02 1425.25 469.582C1426.14 470.145 1426.83 470.935 1427.33 471.952C1427.83 472.969 1428.08 474.159 1428.08 475.523C1428.08 476.875 1427.83 478.057 1427.33 479.068C1426.83 480.08 1426.14 480.866 1425.25 481.429C1424.36 481.991 1423.33 482.273 1422.14 482.273ZM1422.14 480.466C1423.04 480.466 1423.78 480.236 1424.36 479.776C1424.94 479.315 1425.37 478.71 1425.65 477.96C1425.92 477.21 1426.06 476.398 1426.06 475.523C1426.06 474.648 1425.92 473.832 1425.65 473.077C1425.37 472.321 1424.94 471.71 1424.36 471.244C1423.78 470.778 1423.04 470.545 1422.14 470.545C1421.25 470.545 1420.51 470.778 1419.93 471.244C1419.35 471.71 1418.92 472.321 1418.64 473.077C1418.36 473.832 1418.22 474.648 1418.22 475.523C1418.22 476.398 1418.36 477.21 1418.64 477.96C1418.92 478.71 1419.35 479.315 1419.93 479.776C1420.51 480.236 1421.25 480.466 1422.14 480.466ZM1431.42 482V464.545H1437.32C1438.69 464.545 1439.8 464.793 1440.67 465.287C1441.55 465.776 1442.2 466.438 1442.62 467.273C1443.04 468.108 1443.25 469.04 1443.25 470.068C1443.25 471.097 1443.04 472.031 1442.62 472.872C1442.2 473.713 1441.56 474.384 1440.69 474.884C1439.82 475.378 1438.71 475.625 1437.35 475.625H1433.12V473.75H1437.28C1438.22 473.75 1438.97 473.588 1439.54 473.264C1440.11 472.94 1440.52 472.503 1440.78 471.952C1441.04 471.395 1441.17 470.767 1441.17 470.068C1441.17 469.369 1441.04 468.744 1440.78 468.193C1440.52 467.642 1440.11 467.21 1439.53 466.898C1438.96 466.58 1438.2 466.42 1437.25 466.42H1433.53V482H1431.42ZM1447.68 486.909C1447.33 486.909 1447.03 486.881 1446.76 486.824C1446.5 486.773 1446.31 486.722 1446.21 486.67L1446.72 484.898C1447.21 485.023 1447.64 485.068 1448.02 485.034C1448.39 485 1448.72 484.832 1449.01 484.531C1449.31 484.236 1449.58 483.756 1449.82 483.091L1450.2 482.068L1445.36 468.909H1447.54L1451.15 479.341H1451.29L1454.9 468.909H1457.08L1451.53 483.909C1451.28 484.585 1450.97 485.145 1450.6 485.588C1450.23 486.037 1449.8 486.369 1449.31 486.585C1448.83 486.801 1448.28 486.909 1447.68 486.909ZM1465.43 468.909V470.614H1458.65V468.909H1465.43ZM1460.63 465.773H1462.64V478.25C1462.64 478.818 1462.72 479.244 1462.88 479.528C1463.05 479.807 1463.27 479.994 1463.53 480.091C1463.8 480.182 1464.08 480.227 1464.38 480.227C1464.6 480.227 1464.78 480.216 1464.92 480.193C1465.06 480.165 1465.18 480.142 1465.26 480.125L1465.67 481.932C1465.53 481.983 1465.34 482.034 1465.1 482.085C1464.86 482.142 1464.55 482.17 1464.17 482.17C1463.6 482.17 1463.05 482.048 1462.5 481.804C1461.96 481.56 1461.51 481.188 1461.15 480.688C1460.8 480.188 1460.63 479.557 1460.63 478.795V465.773ZM1470.75 474.125V482H1468.74V464.545H1470.75V470.955H1470.92C1471.23 470.278 1471.69 469.741 1472.3 469.344C1472.92 468.94 1473.75 468.739 1474.77 468.739C1475.67 468.739 1476.45 468.918 1477.12 469.276C1477.79 469.628 1478.31 470.17 1478.68 470.903C1479.05 471.631 1479.24 472.557 1479.24 473.682V482H1477.23V473.818C1477.23 472.778 1476.96 471.974 1476.42 471.406C1475.88 470.832 1475.14 470.545 1474.19 470.545C1473.53 470.545 1472.94 470.685 1472.42 470.963C1471.9 471.241 1471.5 471.648 1471.19 472.182C1470.9 472.716 1470.75 473.364 1470.75 474.125ZM1488.24 482.273C1487.06 482.273 1486.02 481.991 1485.13 481.429C1484.24 480.866 1483.55 480.08 1483.05 479.068C1482.55 478.057 1482.31 476.875 1482.31 475.523C1482.31 474.159 1482.55 472.969 1483.05 471.952C1483.55 470.935 1484.24 470.145 1485.13 469.582C1486.02 469.02 1487.06 468.739 1488.24 468.739C1489.42 468.739 1490.45 469.02 1491.34 469.582C1492.23 470.145 1492.92 470.935 1493.42 471.952C1493.92 472.969 1494.17 474.159 1494.17 475.523C1494.17 476.875 1493.92 478.057 1493.42 479.068C1492.92 480.08 1492.23 480.866 1491.34 481.429C1490.45 481.991 1489.42 482.273 1488.24 482.273ZM1488.24 480.466C1489.13 480.466 1489.87 480.236 1490.45 479.776C1491.03 479.315 1491.46 478.71 1491.74 477.96C1492.02 477.21 1492.16 476.398 1492.16 475.523C1492.16 474.648 1492.02 473.832 1491.74 473.077C1491.46 472.321 1491.03 471.71 1490.45 471.244C1489.87 470.778 1489.13 470.545 1488.24 470.545C1487.34 470.545 1486.6 470.778 1486.02 471.244C1485.44 471.71 1485.01 472.321 1484.73 473.077C1484.46 473.832 1484.32 474.648 1484.32 475.523C1484.32 476.398 1484.46 477.21 1484.73 477.96C1485.01 478.71 1485.44 479.315 1486.02 479.776C1486.6 480.236 1487.34 480.466 1488.24 480.466ZM1499.25 474.125V482H1497.24V468.909H1499.18V470.955H1499.35C1499.66 470.29 1500.13 469.756 1500.75 469.352C1501.38 468.943 1502.18 468.739 1503.17 468.739C1504.06 468.739 1504.83 468.92 1505.5 469.284C1506.16 469.642 1506.68 470.188 1507.05 470.92C1507.42 471.648 1507.6 472.568 1507.6 473.682V482H1505.59V473.818C1505.59 472.79 1505.32 471.989 1504.79 471.415C1504.26 470.835 1503.52 470.545 1502.59 470.545C1501.95 470.545 1501.38 470.685 1500.87 470.963C1500.37 471.241 1499.98 471.648 1499.69 472.182C1499.4 472.716 1499.25 473.364 1499.25 474.125Z" fill="black"/>
<path d="M889 1023.13C889 1015.51 882.822 1009.33 875.202 1009.33H752.798C745.177 1009.33 739 1015.51 739 1023.13V1108.87C739 1116.49 745.178 1122.67 752.798 1122.67H875.2C882.82 1122.67 888.998 1116.49 888.998 1108.87L889 1023.13ZM753.632 1016H876.033C879.965 1016 882.332 1019.83 882.332 1023.77V1036H745.665V1023.77C745.667 1019.83 749.698 1016 753.632 1016ZM876.035 1116H753.632C749.698 1116 745.667 1113.43 745.667 1109.5V1042.67H882.333V1109.5C882.333 1113.43 879.967 1116 876.035 1116Z" fill="black"/>
<path d="M756.413 1032.97C759.607 1032.97 762.197 1030.38 762.197 1027.19C762.197 1024 759.607 1021.41 756.413 1021.41C753.219 1021.41 750.63 1024 750.63 1027.19C750.63 1030.38 753.219 1032.97 756.413 1032.97Z" fill="black"/>
<path d="M772.028 1032.97C775.222 1032.97 777.812 1030.38 777.812 1027.19C777.812 1024 775.222 1021.41 772.028 1021.41C768.834 1021.41 766.245 1024 766.245 1027.19C766.245 1030.38 768.834 1032.97 772.028 1032.97Z" fill="black"/>
<path d="M787.645 1032.97C790.839 1032.97 793.428 1030.38 793.428 1027.19C793.428 1024 790.839 1021.41 787.645 1021.41C784.451 1021.41 781.862 1024 781.862 1027.19C781.862 1030.38 784.451 1032.97 787.645 1032.97Z" fill="black"/>
<path d="M784.12 1136.06L782.8 1136.61C783.4 1137.47 784.216 1138.84 784.696 1139.82L786.04 1139.22C785.56 1138.31 784.696 1136.9 784.12 1136.06ZM787.216 1135.46L785.896 1136.01C786.544 1136.82 787.312 1138.22 787.84 1139.2L789.184 1138.62C788.68 1137.69 787.792 1136.27 787.216 1135.46ZM786.28 1140.38L784.816 1139.44C784.384 1139.56 783.904 1139.58 783.544 1139.58C782.44 1139.58 772.864 1139.58 771.496 1139.58C770.704 1139.58 769.768 1139.49 769.096 1139.42V1141.55C769.72 1141.5 770.536 1141.46 771.496 1141.46C772.864 1141.46 782.392 1141.46 783.76 1141.46C783.448 1143.76 782.32 1147.12 780.616 1149.28C778.624 1151.85 775.912 1153.89 771.28 1155.06L772.912 1156.86C777.304 1155.47 780.16 1153.26 782.344 1150.43C784.24 1147.98 785.416 1144.1 785.92 1141.58C786.016 1141.12 786.136 1140.71 786.28 1140.38ZM795.544 1138.14V1140.14C796.192 1140.09 796.96 1140.06 797.68 1140.06C799 1140.06 805.744 1140.06 807.088 1140.06C807.904 1140.06 808.744 1140.09 809.296 1140.14V1138.14C808.72 1138.22 807.88 1138.26 807.136 1138.26C805.72 1138.26 798.976 1138.26 797.68 1138.26C796.912 1138.26 796.168 1138.22 795.544 1138.14ZM811.072 1144.46L809.704 1143.62C809.44 1143.74 808.912 1143.81 808.36 1143.81C807.136 1143.81 796.912 1143.81 795.736 1143.81C795.064 1143.81 794.248 1143.74 793.384 1143.66V1145.68C794.248 1145.61 795.16 1145.58 795.736 1145.58C797.176 1145.58 807.28 1145.58 808.456 1145.58C808.024 1147.34 807.064 1149.38 805.624 1150.89C803.56 1153.05 800.56 1154.61 797.176 1155.3L798.664 1157.01C801.712 1156.14 804.736 1154.75 807.232 1151.99C809.032 1150.02 810.112 1147.53 810.736 1145.18C810.784 1144.98 810.952 1144.7 811.072 1144.46ZM826.96 1136.8H824.68C824.776 1137.54 824.8 1138.1 824.8 1138.6C824.8 1139.15 824.8 1140.86 824.8 1141.79H826.84C826.84 1140.95 826.84 1139.15 826.84 1138.6C826.84 1138.1 826.864 1137.54 826.96 1136.8ZM835.144 1141.46L833.848 1140.64C833.536 1140.74 833.104 1140.83 832.216 1140.83H819.496C818.656 1140.83 817.936 1140.78 817.24 1140.74C817.336 1141.24 817.336 1142.06 817.336 1142.56C817.336 1143.4 817.336 1146.02 817.336 1146.78C817.336 1147.26 817.312 1147.91 817.24 1148.32H819.328C819.28 1147.96 819.256 1147.31 819.256 1146.9C819.256 1146.16 819.256 1143.59 819.256 1142.61H832.648C832.432 1144.65 831.688 1147.55 830.392 1149.59C828.904 1151.87 826.288 1153.65 823.864 1154.44C823.096 1154.73 822.184 1154.97 821.392 1155.11L822.952 1156.89C827.344 1155.69 830.656 1153.24 832.432 1150.1C833.776 1147.82 834.472 1144.82 834.808 1142.9C834.88 1142.44 835.024 1141.79 835.144 1141.46ZM857.104 1137.71L855.952 1138.07C856.432 1138.98 856.984 1140.42 857.32 1141.43L858.52 1141.02C858.184 1140.06 857.56 1138.58 857.104 1137.71ZM859.504 1136.97L858.328 1137.33C858.832 1138.24 859.36 1139.61 859.744 1140.69L860.944 1140.28C860.584 1139.32 859.96 1137.86 859.504 1136.97ZM854.824 1145.42V1139.73C854.824 1138.79 854.92 1138 854.944 1137.76H852.784C852.832 1138 852.904 1138.79 852.904 1139.73V1145.56C852.904 1152.28 850.72 1154.34 846.352 1156.02L847.984 1157.54C853.456 1155.09 854.824 1151.8 854.824 1145.42ZM846.184 1137.93H844.048C844.12 1138.46 844.144 1139.15 844.144 1139.66V1148.46C844.144 1149.38 844.072 1150.38 844.048 1150.62H846.16C846.136 1150.38 846.064 1149.33 846.064 1148.46V1139.66C846.064 1138.82 846.16 1138.14 846.184 1137.93ZM839.152 1142.58V1144.65C839.44 1144.62 840.52 1144.58 841.576 1144.58H857.464C858.52 1144.58 859.408 1144.6 859.672 1144.65V1142.61C859.336 1142.66 858.52 1142.73 857.464 1142.73H841.576C840.544 1142.73 839.368 1142.61 839.152 1142.58Z" fill="black"/>
<path d="M947.98 297.392C947.98 300.92 949.24 302.684 955.936 302.684C960.436 302.684 964.036 302.396 967.24 301.928L967.348 298.832C963.784 299.552 960.292 299.912 956.116 299.912C951.832 299.912 950.896 299.12 950.896 296.636C950.896 293.072 950.896 281.3 950.896 277.52C950.896 276.476 951.004 275.252 951.148 274.208H947.764C947.944 275.252 947.98 276.44 947.98 277.52C947.98 281.336 947.98 294.08 947.98 297.392ZM968.896 281.3L966.772 279.644C966.34 279.896 965.62 280.112 964.864 280.292C962.128 280.94 943.732 284.648 939.124 285.188L939.7 288.212C944.02 287.276 963.424 283.388 964.54 283.172C963.46 285.296 960.832 289.256 958.132 291.74L960.616 293.216C963.532 290.264 966.34 285.728 967.996 282.74C968.248 282.308 968.608 281.696 968.896 281.3ZM981.172 275.648L979.084 277.844C981.784 279.608 986.248 283.496 988.084 285.368L990.316 283.064C988.336 281.084 983.692 277.34 981.172 275.648ZM978.076 299.768L979.948 302.72C985.96 301.604 990.496 299.372 994.132 297.104C999.568 293.684 1003.74 288.788 1006.19 284.324L1004.46 281.228C1002.38 285.692 998.02 291.02 992.44 294.512C989.02 296.636 984.34 298.832 978.076 299.768ZM1034.92 285.476V276.944C1034.92 275.54 1035.06 274.388 1035.1 274.028H1031.82C1031.9 274.352 1032 275.54 1032 276.944V285.692C1032 295.808 1028.76 298.904 1022.21 301.388L1024.62 303.692C1032.83 299.984 1034.92 295.052 1034.92 285.476ZM1021.92 274.244H1018.72C1018.83 275.072 1018.9 276.08 1018.9 276.836V290.048C1018.9 291.416 1018.76 292.964 1018.72 293.288H1021.92C1021.89 292.964 1021.78 291.38 1021.78 290.048V276.836C1021.78 275.612 1021.89 274.568 1021.92 274.244ZM1011.41 281.228V284.324C1011.81 284.324 1013.43 284.216 1015.01 284.216H1038.88C1040.46 284.216 1041.76 284.288 1042.16 284.324V281.264C1041.65 281.336 1040.46 281.48 1038.84 281.48H1015.01C1013.5 281.48 1011.74 281.264 1011.41 281.228ZM1048.64 286.412V289.94C1049.79 289.868 1051.7 289.796 1053.68 289.796C1056.34 289.796 1070.7 289.796 1073.44 289.796C1075.02 289.796 1076.54 289.904 1077.29 289.94V286.412C1076.46 286.484 1075.2 286.628 1073.4 286.628C1070.74 286.628 1056.3 286.628 1053.68 286.628C1051.62 286.628 1049.75 286.52 1048.64 286.412ZM1101.27 277.448L1098.28 277.376C1097.92 281.12 1097.16 285.188 1096.12 288.608C1094.28 294.692 1092.34 297.14 1090.65 297.14C1089.03 297.14 1086.98 295.124 1086.98 290.588C1086.98 285.296 1091.91 278.78 1099.83 278.78C1106.74 278.78 1110.74 283.532 1110.74 289.292C1110.74 295.52 1106.2 298.976 1101.59 300.02C1100.73 300.2 1099.65 300.344 1098.5 300.452L1100.15 303.116C1108.72 302 1113.69 296.96 1113.69 289.436C1113.69 282.128 1108.32 276.188 1099.9 276.188C1091.08 276.188 1084.13 282.992 1084.13 290.804C1084.13 296.78 1087.34 300.452 1090.58 300.452C1093.89 300.452 1096.77 296.636 1098.96 289.256C1100.08 285.404 1100.8 281.192 1101.27 277.448ZM1129.78 282.38V285.08H1151.24V282.38H1129.78ZM1140.94 283.568L1138.67 284.072C1140.47 293.468 1143.86 300.992 1150.01 304.844C1150.44 304.124 1151.34 303.116 1151.99 302.576C1146.02 299.336 1142.56 292.1 1140.94 283.568ZM1143.64 274.172C1145.26 276.152 1147.1 278.888 1147.92 280.58L1150.12 279.212C1149.22 277.556 1147.31 274.928 1145.69 272.984L1143.64 274.172ZM1138.2 271.832V280.22C1138.2 287.096 1137.3 296.132 1128.77 303.116C1129.49 303.584 1130.43 304.268 1130.93 304.808C1139.75 297.572 1140.87 287.996 1140.87 280.22V271.832H1138.2ZM1125.89 271.724V304.808H1128.56V271.724H1125.89ZM1118.73 277.772C1120.46 279.86 1122.44 282.704 1123.3 284.504L1125.53 283.028C1124.6 281.264 1122.54 278.492 1120.82 276.476L1118.73 277.772ZM1118.15 295.052L1119.7 297.32C1122.04 295.268 1124.88 292.568 1127.44 290.012L1126.32 287.852C1123.37 290.588 1120.2 293.396 1118.15 295.052ZM1163.94 296.888V301.316C1163.94 303.872 1164.88 304.556 1168.66 304.556C1169.42 304.556 1175 304.556 1175.82 304.556C1178.7 304.556 1179.5 303.692 1179.82 299.912C1179.1 299.768 1178.06 299.408 1177.48 299.012C1177.34 301.892 1177.08 302.288 1175.54 302.288C1174.35 302.288 1169.74 302.288 1168.84 302.288C1166.93 302.288 1166.57 302.144 1166.57 301.28V296.888H1163.94ZM1167.04 296.024C1169.16 296.96 1171.65 298.544 1172.87 299.804L1174.56 298.112C1173.34 296.816 1170.82 295.34 1168.7 294.476L1167.04 296.024ZM1178.99 297.608C1181.55 299.444 1184.21 302.18 1185.33 304.196L1187.63 302.792C1186.41 300.74 1183.67 298.112 1181.08 296.312L1178.99 297.608ZM1159.44 296.708C1158.62 299.084 1156.89 301.46 1154.4 302.828L1156.53 304.304C1159.19 302.756 1160.74 300.164 1161.75 297.536L1159.44 296.708ZM1157 281.084V295.232H1159.41V283.064H1168.12V281.084H1157ZM1172.66 272.084V279.608C1172.66 282.236 1173.48 282.956 1176.9 282.956C1177.62 282.956 1182.38 282.956 1183.1 282.956C1185.76 282.956 1186.48 282.02 1186.77 278.456C1186.08 278.312 1185.08 277.988 1184.54 277.592C1184.39 280.292 1184.14 280.688 1182.88 280.688C1181.87 280.688 1177.84 280.688 1177.08 280.688C1175.43 280.688 1175.14 280.544 1175.14 279.572V272.084H1172.66ZM1172.66 283.784V291.884C1172.66 294.548 1173.48 295.268 1176.9 295.268C1177.62 295.268 1182.48 295.268 1183.24 295.268C1185.9 295.268 1186.66 294.332 1186.95 290.696C1186.26 290.588 1185.26 290.228 1184.68 289.796C1184.57 292.604 1184.32 293 1183.02 293C1181.98 293 1177.91 293 1177.12 293C1175.43 293 1175.14 292.82 1175.14 291.884V283.784H1172.66ZM1160.67 271.58C1159.84 273.452 1158.33 276.08 1157.14 277.772L1159.05 278.492C1160.34 276.944 1161.96 274.496 1163.33 272.372L1160.67 271.58ZM1164.95 274.496C1166.86 276.224 1168.91 278.672 1169.81 280.364L1171.86 279.14C1170.93 277.448 1168.84 275.072 1166.86 273.416L1164.95 274.496ZM1182.95 272.984C1180.9 274.136 1177.16 275.396 1173.84 276.224C1174.13 276.728 1174.46 277.52 1174.56 277.988C1178.09 277.196 1182.16 276.008 1185 274.64L1182.95 272.984ZM1183.35 284.864C1181.19 286.088 1177.26 287.348 1173.84 288.176C1174.13 288.68 1174.46 289.472 1174.56 289.976C1178.24 289.148 1182.45 287.924 1185.36 286.556L1183.35 284.864ZM1167.26 281.084V292.604C1167.26 292.964 1167.11 293.072 1166.68 293.072C1166.28 293.108 1164.95 293.108 1163.48 293.072C1163.76 293.648 1164.12 294.44 1164.27 295.088C1166.32 295.088 1167.72 295.052 1168.59 294.692C1169.45 294.332 1169.7 293.792 1169.7 292.604V281.084H1167.26ZM1154.84 277.016L1154.98 279.248C1158.76 279.104 1164.12 278.888 1169.34 278.636L1169.38 276.62C1163.94 276.764 1158.51 276.944 1154.84 277.016ZM1158.36 285.008V286.736H1168.16V285.008H1158.36ZM1158.36 288.752V290.48H1168.16V288.752H1158.36ZM1204.26 274.064L1200.92 273.704C1200.92 276.476 1200.45 279.716 1199.76 282.596C1198.79 286.988 1195.91 296.6 1191.81 302.108L1194.76 303.26C1198.83 296.708 1201.38 287.744 1202.61 282.668C1203.11 280.436 1203.58 277.484 1203.83 276.188C1203.98 275.504 1204.12 274.712 1204.26 274.064ZM1216.65 278.204L1214.02 279.392C1216.54 282.38 1219.38 288.644 1220.43 292.316L1223.24 290.984C1222.01 287.672 1218.88 281.12 1216.65 278.204ZM1191.3 281.948L1191.59 285.08C1192.53 284.936 1194 284.756 1194.83 284.648C1197.03 284.432 1203.8 283.604 1206.21 283.604C1208.51 283.604 1210.02 284.216 1210.02 287.528C1210.02 291.416 1209.45 296.096 1208.3 298.544C1207.58 300.092 1206.5 300.38 1205.16 300.38C1204.16 300.38 1202.25 300.128 1200.74 299.66L1201.24 302.648C1202.36 302.936 1204.08 303.188 1205.45 303.188C1207.79 303.188 1209.59 302.576 1210.71 300.164C1212.22 297.176 1212.8 291.452 1212.8 287.168C1212.8 282.308 1210.17 281.084 1206.96 281.084C1204.52 281.084 1197.21 281.876 1194.51 281.948C1193.36 281.984 1192.42 282.02 1191.3 281.948ZM1217.04 272.984L1215.1 273.812C1216.11 275.18 1217.33 277.34 1218.05 278.816L1220 277.952C1219.24 276.476 1217.94 274.28 1217.04 272.984ZM1221 271.544L1219.1 272.372C1220.14 273.704 1221.33 275.756 1222.08 277.34L1224.06 276.476C1223.34 275.144 1221.98 272.876 1221 271.544ZM1227.27 275.36V277.916H1258.84V275.36H1227.27ZM1241.56 271.796V276.368H1244.33V271.796H1241.56ZM1246.42 276.368V285.8C1246.42 286.196 1246.31 286.304 1245.84 286.304C1245.34 286.34 1243.79 286.34 1242.03 286.268C1242.32 287.024 1242.64 287.96 1242.75 288.716C1245.16 288.716 1246.82 288.68 1247.79 288.284C1248.83 287.888 1249.05 287.204 1249.05 285.836V276.368H1246.42ZM1238.9 276.08V278.06C1238.9 281.084 1238.43 285.188 1233.21 288.212C1233.82 288.608 1234.76 289.472 1235.15 290.048C1240.88 286.592 1241.42 281.804 1241.42 278.096V276.08H1238.9ZM1250.92 280.832C1253.26 282.992 1256 286.016 1257.18 287.996L1259.45 286.592C1258.16 284.612 1255.35 281.66 1253.04 279.572L1250.92 280.832ZM1232.7 279.752C1231.59 282.02 1229.1 284.576 1226.62 286.088C1227.16 286.484 1228.02 287.204 1228.49 287.708C1231.12 285.98 1233.75 283.172 1235.26 280.472L1232.7 279.752ZM1236.99 292.532L1234.61 293.36C1239 300.128 1247.18 303.8 1258.01 304.988C1258.34 304.196 1259.02 303.08 1259.6 302.468C1249.05 301.604 1240.73 298.328 1236.99 292.532ZM1239.08 288.032C1237.02 290.912 1233.1 294.044 1227.56 296.168C1228.13 296.6 1228.89 297.536 1229.28 298.148C1235.12 295.628 1239.26 292.244 1241.96 288.608L1239.08 288.032ZM1238 290.768L1236.02 293H1251.46V290.768H1238ZM1250.74 290.768V291.236C1246.92 298.112 1237.17 301.388 1226.66 302.612C1227.16 303.152 1227.77 304.34 1227.99 304.988C1238.75 303.476 1249.01 299.876 1253.58 291.884L1251.86 290.66L1251.35 290.768H1250.74ZM1280.01 299.444L1281.3 302.144C1289.15 300.632 1294.44 296.852 1294.41 289.58C1294.41 284 1289.98 280.508 1284.98 280.508C1281.2 280.508 1276.62 282.02 1272.3 286.088V289.292C1275.8 285.656 1279.94 283.1 1284.54 283.1C1289.33 283.1 1291.53 286.772 1291.53 289.544C1291.56 295.736 1286.09 298.544 1280.01 299.444ZM1271.87 282.092L1271.58 283.028L1271.44 284.864C1270.04 287.24 1265.18 293.864 1262.94 296.672L1264.74 299.12C1267.01 295.988 1270.36 291.128 1272.02 288.572L1273.1 283.64C1273.71 282.632 1274.68 281.084 1275.29 280.148L1274.25 278.924C1272.56 279.464 1268.09 280.004 1266.18 280.112C1265.28 280.184 1264.6 280.184 1263.81 280.148L1264.13 283.136C1266.8 282.74 1270.72 282.236 1271.87 282.092ZM1271.51 276.116C1271.51 277.448 1270.65 288.86 1270.58 292.028C1270.54 295.988 1270.5 297.788 1270.5 301.28C1270.5 301.856 1270.43 302.9 1270.4 303.404H1273.49C1273.46 302.72 1273.35 301.82 1273.31 301.208C1273.17 298.004 1273.17 295.808 1273.17 292.532C1273.17 286.196 1274.28 275.9 1274.79 273.56L1271.37 273.452C1271.55 274.352 1271.51 275.288 1271.51 276.116ZM1302.76 287.636L1303.98 290.624C1306.29 289.688 1314.17 286.412 1318.6 286.412C1322.31 286.412 1324.72 288.68 1324.72 291.74C1324.72 297.608 1317.88 299.84 1310.07 300.056L1311.26 302.828C1320.94 302.252 1327.64 298.724 1327.64 291.776C1327.64 286.88 1323.93 283.82 1318.82 283.82C1314.6 283.82 1308.66 285.98 1306.11 286.772C1304.99 287.132 1303.8 287.456 1302.76 287.636ZM1348.91 273.704L1345.49 273.416C1345.56 274.172 1345.49 275.396 1345.35 276.404C1345.1 278.276 1344.16 282.812 1343.3 286.124C1341.93 291.2 1339.41 298.508 1337.25 302.252L1340.38 303.296C1342.29 299.372 1344.7 291.92 1346 286.808C1347 283.208 1347.76 279.14 1348.3 276.548C1348.44 275.864 1348.7 274.496 1348.91 273.704ZM1340.96 279.716C1339.62 279.716 1338.33 279.644 1336.64 279.428L1336.71 282.236C1338.04 282.344 1339.3 282.38 1340.88 282.38C1344.77 282.38 1350.21 281.768 1354.67 280.76V277.952C1350.21 279.068 1344.92 279.716 1340.96 279.716ZM1352.33 284.648V287.348C1354.53 287.096 1356.76 286.952 1358.99 286.952C1361.12 286.952 1363.2 287.168 1365.08 287.384L1365.15 284.648C1363.2 284.432 1361.01 284.36 1358.92 284.36C1356.62 284.36 1354.2 284.468 1352.33 284.648ZM1353.05 293.396L1350.39 293.144C1350.06 294.656 1349.85 296.024 1349.85 297.392C1349.85 300.956 1352.94 302.684 1358.6 302.684C1361.22 302.684 1363.64 302.468 1365.58 302.18L1365.69 299.3C1363.46 299.732 1361.01 299.984 1358.63 299.984C1353.52 299.984 1352.55 298.328 1352.55 296.636C1352.55 295.7 1352.76 294.584 1353.05 293.396ZM1381.02 273.776L1380.3 276.548C1383.08 277.268 1390.85 278.852 1394.31 279.32L1394.99 276.584C1391.79 276.26 1384.12 274.784 1381.02 273.776ZM1380.23 280.364L1377.21 279.968C1376.99 283.712 1376.09 291.272 1375.37 294.548L1378.07 295.196C1378.29 294.62 1378.61 294.044 1379.15 293.432C1381.67 290.372 1385.56 288.608 1390.28 288.608C1393.95 288.608 1396.65 290.66 1396.65 293.504C1396.65 298.436 1391.1 301.712 1379.73 300.344L1380.59 303.26C1393.95 304.376 1399.67 300.02 1399.67 293.612C1399.67 289.364 1396 286.052 1390.49 286.052C1386.17 286.052 1382.21 287.456 1378.76 290.48C1379.12 288.14 1379.76 282.812 1380.23 280.364ZM1416.45 286.052V288.536H1439.16V286.052H1416.45ZM1417.6 278.636V281.048H1438.08V278.636H1417.6ZM1426.1 279.752V285.116C1426.1 288.824 1425.45 294.116 1416.7 297.644C1417.31 298.112 1418.14 299.048 1418.5 299.624C1427.57 295.556 1428.8 289.652 1428.8 285.152V279.752H1426.1ZM1429.55 287.636L1427.21 288.14C1428.8 294.008 1432.07 297.896 1437.51 299.804C1437.87 299.084 1438.62 298.04 1439.24 297.5C1434.09 296.024 1430.92 292.676 1429.55 287.636ZM1414.4 285.98H1406.73V288.5H1411.77V298.724H1414.4V285.98ZM1414.4 297.536H1411.95C1410.11 299.084 1407.99 300.668 1406.26 301.82L1407.7 304.592C1409.64 303.008 1411.48 301.46 1413.21 299.912C1415.51 302.756 1418.75 304.016 1423.43 304.196C1427.43 304.34 1434.88 304.268 1438.84 304.124C1438.95 303.296 1439.42 302 1439.7 301.352C1435.46 301.64 1427.36 301.748 1423.43 301.604C1419.29 301.424 1416.09 300.2 1414.4 297.536ZM1407.12 274.28C1409.46 275.864 1412.16 278.312 1413.32 280.04L1415.44 278.276C1414.22 276.512 1411.48 274.172 1409.1 272.66L1407.12 274.28ZM1433.37 271.76C1432.61 273.596 1431.14 276.188 1430.02 277.808L1432.22 278.636C1433.4 277.124 1434.88 274.748 1436.1 272.696L1433.37 271.76ZM1419 272.84C1420.41 274.64 1421.74 277.124 1422.21 278.744L1424.66 277.664C1424.15 276.008 1422.75 273.632 1421.31 271.904L1419 272.84ZM1455.54 273.488V275.684H1472.21V273.488H1455.54ZM1455.11 283.46V285.692H1472.86V283.46H1455.11ZM1455.11 288.464V290.696H1472.79V288.464H1455.11ZM1456.16 300.956V303.188H1471.78V300.956H1456.16ZM1452.16 278.456V280.724H1475.6V278.456H1452.16ZM1454.75 293.468V304.88H1457.34V295.664H1470.48V304.772H1473.18V293.468H1454.75ZM1450.94 271.868C1448.85 277.34 1445.32 282.704 1441.68 286.124C1442.19 286.772 1442.94 288.176 1443.2 288.788C1447.19 284.792 1451.04 278.744 1453.49 272.66L1450.94 271.868ZM1447.19 281.156V304.808H1449.78V278.636L1449.75 278.6L1447.19 281.156Z" fill="black"/>
<defs>
<linearGradient id="paint0_linear_102_25" x1="1372.5" y1="938.515" x2="1305.72" y2="937.97" gradientUnits="userSpaceOnUse">
<stop stop-color="#366A96"/>
<stop offset="1" stop-color="#3679B0"/>
</linearGradient>
<linearGradient id="paint1_linear_102_25" x1="1395.92" y1="968.447" x2="1263.73" y2="968.447" gradientUnits="userSpaceOnUse">
<stop stop-color="#FFC836"/>
<stop offset="1" stop-color="#FFE873"/>
</linearGradient>
<clipPath id="clip0_102_25">
<rect width="130" height="145" fill="white" transform="translate(1291 911)"/>
</clipPath>
</defs>
</svg>
