<svg width="23" height="24" viewBox="0 0 23 24" fill="none" xmlns="http://www.w3.org/2000/svg">
<path d="M0 0V24H10.1538V20.3077H12V24H22.1538V0H0ZM1.84615 1.84615H20.3077V22.1538H13.8462V18.4615H8.30769V22.1538H1.84615V1.84615ZM3.69231 3.69231V5.53846H7.38462V3.69231H3.69231ZM9.23077 3.69231V5.53846H12.9231V3.69231H9.23077ZM14.7692 3.69231V5.53846H18.4615V3.69231H14.7692ZM3.69231 7.38462V9.23077H7.38462V7.38462H3.69231ZM9.23077 7.38462V9.23077H12.9231V7.38462H9.23077ZM14.7692 7.38462V9.23077H18.4615V7.38462H14.7692ZM3.69231 11.0769V12.9231H7.38462V11.0769H3.69231ZM9.23077 11.0769V12.9231H12.9231V11.0769H9.23077ZM14.7692 11.0769V12.9231H18.4615V11.0769H14.7692ZM3.69231 14.7692V16.6154H7.38462V14.7692H3.69231ZM9.23077 14.7692V16.6154H12.9231V14.7692H9.23077ZM14.7692 14.7692V16.6154H18.4615V14.7692H14.7692ZM3.69231 18.4615V20.3077H7.38462V18.4615H3.69231ZM14.7692 18.4615V20.3077H18.4615V18.4615H14.7692Z" fill="#00A1E9"/>
</svg>
