<svg width="122" height="136" viewBox="0 0 122 136" fill="none" xmlns="http://www.w3.org/2000/svg">
<path d="M108.444 54.4H115.222C117.02 54.4 118.744 55.1164 120.015 56.3917C121.286 57.6669 122 59.3965 122 61.2V129.2C122 131.003 121.286 132.733 120.015 134.008C118.744 135.284 117.02 136 115.222 136H6.77778C4.9802 136 3.25624 135.284 1.98516 134.008C0.714085 132.733 0 131.003 0 129.2V61.2C0 59.3965 0.714085 57.6669 1.98516 56.3917C3.25624 55.1164 4.9802 54.4 6.77778 54.4H13.5556V47.6C13.5556 41.3491 14.7827 35.1594 17.167 29.3843C19.5514 23.6092 23.0461 18.3618 27.4517 13.9417C31.8573 9.52165 37.0876 6.01546 42.8438 3.62333C48.6 1.23121 54.7695 0 61 0C67.2305 0 73.4 1.23121 79.1562 3.62333C84.9124 6.01546 90.1427 9.52165 94.5483 13.9417C98.9539 18.3618 102.449 23.6092 104.833 29.3843C107.217 35.1594 108.444 41.3491 108.444 47.6V54.4ZM94.8889 54.4V47.6C94.8889 38.5826 91.3185 29.9346 84.9631 23.5584C78.6077 17.1821 69.9879 13.6 61 13.6C52.0121 13.6 43.3923 17.1821 37.0369 23.5584C30.6815 29.9346 27.1111 38.5826 27.1111 47.6V54.4H94.8889ZM54.2222 81.6V108.8H67.7778V81.6H54.2222Z" fill="black"/>
</svg>
