<?xml version="1.0" encoding="UTF-8"?><svg xmlns="http://www.w3.org/2000/svg" viewBox="0 0 335.39844 59.20312"><defs><style>.d{fill:#00a0e9;}.e{fill:#231815;}</style></defs><g id="a"/><g id="b"><g id="c"><g><path class="d" d="M0,21.85156C0,10.85059,6.9502,0,22.35107,0c14.35107,0,22.30127,10.85059,22.30127,21.85156,0,11.40039-7.9502,21.45117-22.30127,21.45117C6.9502,43.30273,0,33.25195,0,21.85156Zm32.75195-.10059c0-5.85059-3.75049-11.55078-10.40088-11.55078-7.15039,0-10.45068,5.7002-10.45068,11.55078,0,5.75098,3.30029,11.30078,10.45068,11.30078,6.65039,0,10.40088-5.5498,10.40088-11.30078Z"/><path class="d" d="M85.05176,12.85059c-2.80029-.5498-6.00049-.9502-9.20068-.9502-8.40088,0-11.80078,4.85059-11.80078,9.70117,0,5.15039,2.80029,10.2998,15.05078,10.2998h5.95068v11.40137h-6.75049c-22.20166,0-26.85205-10.95117-26.85205-21.65137C51.44922,9.05078,62.90039,.0498,75.85107,.0498c5.05029,0,7.15039,.25,9.20068,.4502V12.85059Z"/><path class="e" d="M121.34961,1.7002v30.35156h17.90137c.6499,0,1,.35059,1,1v8.75098c0,.64941-.3501,1-1,1h-28.50195c-.6499,0-1-.35059-1-1V1.7002c0-.65039,.3501-1,1-1h9.60059c.65039,0,1,.34961,1,1Z"/><path class="e" d="M144.99902,26.30176c0-8.75098,5.65039-17.45117,18.05078-17.45117,11.60059,0,18.00098,8.7002,18.00098,17.45117,0,8.7002-6.40039,17.10059-18.00098,17.10059-12.40039,0-18.05078-8.40039-18.05078-17.10059Zm25.15137-.0498c0-3.65039-2.5498-7.25098-7.10059-7.25098-4.9502,0-7.15039,3.60059-7.15039,7.25098,0,3.5498,2.2002,7.0498,7.15039,7.0498,4.55078,0,7.10059-3.5,7.10059-7.0498Z"/><path class="e" d="M222.15137,10.35059V46.60254c0,6.9502-1.40039,9.35059-8.45117,10.70117-5.15039,.9502-12.7002,1.7998-23.55078,1.89941-.7002,0-1.05078-.34961-1.05078-1v-8.85059c0-.59961,.40039-1,1-1l19.95117-.5v-4.5498h-.64941c-15.35156,0-22.75195-6.9502-22.75195-17.45117,0-8.7002,6.80078-16.50098,21.25195-16.50098h13.25c.65039,0,1.00098,.34961,1.00098,1Zm-12.10156,23.85156V18.00098h-.64941c-4.75098,0-10.35059,2-10.35059,7.90039,0,5.9502,5.59961,8.30078,10.35059,8.30078h.64941Z"/><path class="e" d="M263.85059,10.35059V46.60254c0,6.9502-1.40039,9.35059-8.45117,10.70117-5.15039,.9502-12.7002,1.7998-23.55078,1.89941-.7002,0-1.05078-.34961-1.05078-1v-8.85059c0-.59961,.40039-1,1-1l19.95117-.5v-4.5498h-.64941c-15.35156,0-22.75195-6.9502-22.75195-17.45117,0-8.7002,6.80078-16.50098,21.25195-16.50098h13.25c.65039,0,1.00098,.34961,1.00098,1Zm-12.10156,23.85156V18.00098h-.64941c-4.75098,0-10.35059,2-10.35059,7.90039,0,5.9502,5.59961,8.30078,10.35059,8.30078h.64941Z"/><path class="e" d="M304.44922,27.10156c-.09961,.59961-.5,.90039-1.09961,.90039h-21.45215c1.00098,3.7002,5.00098,5.0498,10.90137,5.0498,2.64941,0,5.7002,0,8.4502-.39941,.7002-.10059,1.10059,.25,1.10059,.89941v8.2002c0,.60059-.30078,.9502-.90039,1.05078-3.05078,.5-6.50098,.5-10.15039,.5-14.45117,0-21.25195-8.40039-21.25195-17.10156,0-8.75,5.65039-17.45117,18.05176-17.45117,11.60059,0,16.50098,7.55078,16.50098,14.50098,0,1.90039-.05078,2.9502-.15039,3.85059Zm-9.80078-3.85059c.2002-3.0498-2.65039-4.9502-5.9502-4.9502-3.60059,0-5.7002,2.30078-6.55078,4.9502h12.50098Z"/><path class="e" d="M335.39844,9.90039v9.10059c0,.65039-.35059,1-1,1h-11.60059v21.80176c0,.64941-.35059,1-1.00098,1h-10c-.65039,0-1-.35059-1-1V10.40039c0-.65039,.34961-1,1-1h9.05078c.5498,0,.94922,.2002,1.14941,.7002,.0498,.25,.15039,.4502,.2002,.7002,1.9502-1.35059,4.25-2.10059,7.80078-2.10059,1,0,2.7998,.0498,4.4502,.2002,.59961,0,.9502,.40039,.9502,1Z"/></g></g></g></svg>