<?xml version="1.0" encoding="UTF-8"?><svg xmlns="http://www.w3.org/2000/svg" viewBox="0 0 321.14746 59.2041"><defs><style>.d{fill:#00a0e9;}.e{fill:#231815;}</style></defs><g id="a"/><g id="b"><g id="c"><g><path class="d" d="M0,21.85156C0,10.85059,6.9502,0,22.35107,0c14.35107,0,22.30127,10.85059,22.30127,21.85156,0,11.40039-7.9502,21.45117-22.30127,21.45117C6.9502,43.30273,0,33.25195,0,21.85156Zm32.75195-.09961c0-5.85059-3.75049-11.55078-10.40088-11.55078-7.15039,0-10.45068,5.7002-10.45068,11.55078,0,5.75,3.30029,11.30078,10.45068,11.30078,6.65039,0,10.40088-5.55078,10.40088-11.30078Z"/><path class="d" d="M85.05176,12.85156c-2.80029-.55078-6.00049-.9502-9.20068-.9502-8.40088,0-11.80078,4.84961-11.80078,9.7002,0,5.15039,2.80029,10.30078,15.05078,10.30078h5.95068v11.40039h-6.75049c-22.20166,0-26.85205-10.9502-26.85205-21.65137C51.44922,9.05078,62.90039,.05078,75.85107,.05078c5.05029,0,7.15039,.25,9.20068,.44922V12.85156Z"/><path class="e" d="M121.34961,1.7002v30.35254h17.90137c.6499,0,1,.34961,1,1v8.75c0,.65039-.3501,1-1,1h-28.50195c-.6499,0-1-.34961-1-1V1.7002c0-.64941,.3501-1,1-1h9.60059c.65039,0,1,.35059,1,1Z"/><path class="e" d="M144.99902,26.30176c0-8.75,5.65039-17.45117,18.05078-17.45117,11.60059,0,18.00098,8.70117,18.00098,17.45117,0,8.70117-6.40039,17.10156-18.00098,17.10156-12.40039,0-18.05078-8.40039-18.05078-17.10156Zm25.15137-.0498c0-3.65039-2.5498-7.25-7.10059-7.25-4.9502,0-7.15039,3.59961-7.15039,7.25,0,3.5498,2.2002,7.05078,7.15039,7.05078,4.55078,0,7.10059-3.50098,7.10059-7.05078Z"/><path class="e" d="M222.15137,10.35059V46.60352c0,6.9502-1.40039,9.35059-8.45117,10.7002-5.15039,.9502-12.7002,1.7998-23.55078,1.90039-.7002,0-1.05078-.35059-1.05078-1v-8.85059c0-.60059,.40039-1,1-1l19.95117-.5v-4.55078h-.64941c-15.35156,0-22.75195-6.9502-22.75195-17.45117,0-8.7002,6.80078-16.50098,21.25195-16.50098h13.25c.65039,0,1.00098,.35059,1.00098,1Zm-12.10156,23.85156V18.00098h-.64941c-4.75098,0-10.35059,2.00098-10.35059,7.90137,0,5.9502,5.59961,8.2998,10.35059,8.2998h.64941Z"/><path class="e" d="M263.85059,10.35059V46.60352c0,6.9502-1.40039,9.35059-8.45117,10.7002-5.15039,.9502-12.7002,1.7998-23.55078,1.90039-.7002,0-1.05078-.35059-1.05078-1v-8.85059c0-.60059,.40039-1,1-1l19.95117-.5v-4.55078h-.64941c-15.35156,0-22.75195-6.9502-22.75195-17.45117,0-8.7002,6.80078-16.50098,21.25195-16.50098h13.25c.65039,0,1.00098,.35059,1.00098,1Zm-12.10156,23.85156V18.00098h-.64941c-4.75098,0-10.35059,2.00098-10.35059,7.90137,0,5.9502,5.59961,8.2998,10.35059,8.2998h.64941Z"/><path class="e" d="M295.24902,9.90137v9.10059c0,.64941-.35059,1-1,1h-11.60156v21.80078c0,.65039-.34961,1-1,1h-10c-.65039,0-1-.34961-1-1V10.40137c0-.65039,.34961-1,1-1h9.05078c.5498,0,.94922,.19922,1.14941,.69922,.0498,.25,.15039,.4502,.2002,.7002,1.9502-1.34961,4.25-2.09961,7.80078-2.09961,1,0,2.7998,.0498,4.4502,.2002,.59961,0,.9502,.39941,.9502,1Z"/><path class="e" d="M321.14746,10.45117v7.85059c0,.64941-.34961,1-1,1h-4.2002v12.90039h3.85059c.65039,0,1,.35059,1,1v9.10059c0,.60059-.34961,1-1,1.0498-1.0498,0-2.0498,.05078-2.9502,.05078-7.85059,0-13.00098-2.7002-13.05078-9.20117v-14.90039h-2.2002c-.65039,0-1-.35059-1-1v-7.85059c0-.65039,.34961-1,1-1h2.25V4.80078c0-.65039,.34961-1,1-1h10.10059c.65039,0,1,.34961,1,1v4.65039h4.2002c.65039,0,1,.34961,1,1Z"/></g></g></g></svg>