<svg width="122" height="136" viewBox="0 0 122 136" fill="none" xmlns="http://www.w3.org/2000/svg">
<path d="M27.1111 54.2394H115.222C117.02 54.2394 118.744 54.9535 120.015 56.2245C121.286 57.4956 122 59.2196 122 61.0172V128.795C122 130.593 121.286 132.316 120.015 133.588C118.744 134.859 117.02 135.573 115.222 135.573H6.77778C4.9802 135.573 3.25624 134.859 1.98516 133.588C0.714085 132.316 0 130.593 0 128.795V61.0172C0 59.2196 0.714085 57.4956 1.98516 56.2245C3.25624 54.9535 4.9802 54.2394 6.77778 54.2394H13.5556V47.4616C13.5517 36.771 17.1585 26.3925 23.7913 18.0083C30.4241 9.62416 39.6941 3.72582 50.0986 1.26944C60.5032 -1.18695 71.4324 -0.0574049 81.1146 4.47498C90.7968 9.00736 98.6646 16.6769 103.442 26.2404L91.317 32.2997C87.9044 25.4678 82.2842 19.9889 75.3677 16.7511C68.4512 13.5134 60.6439 12.7067 53.2115 14.4618C45.7791 16.2169 39.1574 20.431 34.42 26.4207C29.6825 32.4105 27.107 39.8248 27.1111 47.4616V54.2394ZM47.4444 88.1283V101.684H74.5556V88.1283H47.4444Z" fill="#00A1E9"/>
</svg>
